<svg width="728" height="288" viewBox="0 0 728 288" fill="none" xmlns="http://www.w3.org/2000/svg">
<g clip-path="url(#clip0_20_785)">
<path d="M114.624 138.64L117.208 138.522C130.035 137.921 140.023 138.64 146.883 140.662C153.469 142.611 158.054 145.526 160.519 149.342C163.03 153.24 164.295 158.058 164.295 163.659C164.295 171.938 162.293 179.817 158.345 187.067C154.333 194.426 149.021 201.047 142.543 206.749C136.021 212.487 128.752 217.223 120.938 220.811C113.141 224.382 105.391 226.595 97.8945 227.387C88.2424 228.407 79.1544 227.187 70.885 223.78C62.5702 220.365 55.247 215.046 49.1065 207.987C42.9295 200.892 38.017 192.085 34.5146 181.811C30.994 171.519 29.211 159.688 29.211 146.646C29.211 130.27 31.8855 115.433 37.1619 102.555C42.4382 89.6761 49.6068 78.3641 58.4674 68.9193C67.3372 59.4744 77.3622 51.9513 88.2424 46.5503C99.1499 41.1494 110.485 37.7977 121.938 36.5863C131.681 35.5571 140.624 36.1492 148.493 38.3533C156.298 40.53 163.012 44.246 168.443 49.3829C173.874 54.5197 177.959 61.041 180.597 68.7644C183.244 76.5335 184.208 85.7415 183.481 96.1245L183.28 98.9115L192.469 97.9461L203.14 41.8507L202.23 40.9854C198.955 37.8432 193.87 34.7921 186.701 31.659C179.687 28.5987 171.263 26.2671 161.656 24.7552C152.032 23.2433 141.17 23.0976 129.371 24.3454C113.887 25.9757 98.3494 30.2564 83.1662 37.0873C67.9831 43.9091 53.9461 53.1536 41.4557 64.5475C28.9108 75.9961 18.7583 89.8401 11.2805 105.697C3.80261 121.554 0 139.46 0 158.878C0 175.609 3.25678 190.819 9.67938 204.071C16.1566 217.432 25.9542 227.806 38.7994 234.892C51.6628 241.996 68.074 244.555 87.5874 242.506C98.2675 241.386 108.529 238.872 118.09 235.038C127.615 231.212 136.685 226.167 145.063 220.019C150.349 216.139 155.37 211.895 160.074 207.341L163.394 228.708C163.631 230.22 164.95 231.212 166.496 231.048C167.988 230.894 169.28 229.701 169.571 228.207L190.713 121.035L115.215 128.977L114.615 138.631L114.624 138.64Z" fill="black"/>
<path d="M244.986 85.3681C250.854 56.6509 258.769 37.4242 264.891 20.684L256.467 21.5674L219.978 41.5046L218.195 50.1206C229.166 57.3978 233.251 70.759 227.638 97.1536L208.752 187.786C204.413 208.68 208.243 222.332 224.063 220.666C237.836 219.217 247.788 203.351 252.382 186.52L247.534 183.196C244.986 187.039 240.392 190.591 235.544 191.101C228.912 191.803 224.318 184.617 226.865 172.858L244.977 85.3681H244.986Z" fill="black"/>
<path d="M298.569 184.471C291.937 185.172 287.597 177.959 290.145 166.2L293.72 149.223C299.842 120.224 306.993 100.314 313.115 84.5939L304.691 85.4774L267.948 105.442L266.165 114.058C277.39 121.308 282.494 132.52 277.39 154.77L271.268 181.219C266.419 202.167 272.796 215.547 287.852 213.962C300.861 212.596 310.304 196.785 314.898 179.953L310.049 176.629C307.502 180.472 304.182 183.888 298.569 184.48V184.471Z" fill="black"/>
<path d="M307.247 26.4492C296.531 27.5786 286.833 38.3077 286.833 48.2717C286.833 57.2156 293.21 65.2306 303.417 64.1558C314.643 62.9718 325.105 53.7 325.105 42.2059C325.105 31.9868 318.728 25.247 307.247 26.4584V26.4492Z" fill="black"/>
<path d="M451.856 170.381C439.356 171.692 433.998 163.067 437.055 148.431C437.055 148.431 441.585 126.609 443.523 119.395C447.553 104.44 455.413 81.8707 491.656 78.0545L493.439 69.4384C493.439 69.4384 451.947 80.6775 465.629 31.495C467.366 25.2561 470.559 12.9605 473.407 1.89443C473.925 -0.118411 471.124 -0.783286 470.323 1.15669C465.592 12.7055 460.134 25.8572 457.214 32.3694C450.6 47.1059 438.01 74.7756 412.11 77.9907C392.57 80.4134 370.627 89.2025 384.3 40.0473C386.001 33.9359 388.903 22.3143 391.369 12.2683C391.86 10.2737 389.113 9.6088 388.294 11.5214C383.791 22.0866 378.696 34.1636 375.885 40.9399C369.699 55.8221 360.684 83.4099 329.19 86.7252L327.407 95.3412C327.407 95.3412 353.87 91.7891 346.129 129.651C344.191 139.114 338.378 167.503 338.378 167.503C333.784 189.444 339.651 209.517 361.084 207.268C377.414 205.546 388.894 191.566 396.299 166.519L388.64 163.75C385.064 171.538 379.706 177.977 370.527 178.942C358.028 180.254 352.669 171.629 355.726 156.992C355.726 156.992 360.256 135.17 362.194 127.956C366.224 113.001 374.794 90.3501 410.327 86.6159C422.654 85.3225 435.19 83.255 427.448 121.089C425.51 130.552 419.697 158.941 419.697 158.941C415.103 180.882 420.971 200.956 442.404 198.706C458.733 196.985 470.214 183.004 477.619 157.958L469.959 155.189C466.384 162.976 461.026 169.416 451.847 170.381H451.856Z" fill="black"/>
<path d="M614.704 107.263C612.921 72.9632 591.488 55.2939 559.593 58.6456C522.086 62.5893 489.682 100.232 489.682 138.303C489.682 169.98 510.86 191.511 545.566 187.859C568.272 185.473 592.261 171.957 605.27 139.678L600.421 136.354C584.601 152.065 568.527 158.359 551.179 160.18C535.104 161.874 516.218 158.24 509.077 144.178L610.628 113.311L614.713 107.263H614.704ZM506.011 129.432C506.775 107.637 527.189 89.9038 553.726 87.1168C575.413 84.8307 590.469 92.6999 595.573 101.617L506.011 129.432Z" fill="black"/>
<path d="M701.464 43.7178C687.427 45.1933 669.824 56.2411 655.277 74.384C658.343 63.3361 661.145 54.6108 663.956 47.6706L655.532 48.5541L618.534 68.5367L616.751 77.1528C629.25 84.7761 634.609 98.2648 630.788 117.063L628.495 128.284C623.901 150.99 615.486 161.073 597.365 170.135L595.582 178.751L661.673 171.793L663.456 163.177C647.89 157.657 639.73 146.254 644.57 123.266L649.674 99.4853C660.899 83.2277 673.917 77.2621 682.078 76.4059C690.756 75.4951 695.341 78.5827 697.643 86.7707L706.067 85.8872L728.009 57.7803C723.924 47.4793 712.444 42.5611 701.473 43.7087L701.464 43.7178Z" fill="black"/>
<path d="M242.703 288L246.697 255.867L252.41 255.266L248.416 287.399L242.703 288ZM248.107 277.216L248.698 272.471L252.146 272.107C252.965 272.025 253.702 271.77 254.366 271.351C255.03 270.932 255.612 270.376 256.112 269.666C256.613 268.965 256.995 268.163 257.268 267.271C257.541 266.378 257.677 265.422 257.677 264.392C257.677 262.726 257.304 261.505 256.567 260.713C255.821 259.93 254.775 259.611 253.41 259.747L250.19 260.084L250.781 255.43L254.366 255.057C256.276 254.856 257.923 255.075 259.315 255.722C260.706 256.359 261.762 257.352 262.471 258.682C263.181 260.012 263.536 261.669 263.536 263.636C263.536 265.303 263.29 266.879 262.79 268.373C262.289 269.866 261.552 271.214 260.588 272.416C259.615 273.628 258.45 274.602 257.068 275.349C255.694 276.096 254.184 276.561 252.555 276.734L248.107 277.198V277.216Z" fill="black"/>
<path d="M263.627 285.805L267.62 253.672L275.789 252.816C276.936 252.698 278.036 252.743 279.083 252.971C280.129 253.199 281.057 253.6 281.875 254.173C282.694 254.756 283.34 255.521 283.822 256.469C284.304 257.416 284.55 258.554 284.55 259.893C284.55 260.895 284.404 261.897 284.122 262.89C283.831 263.891 283.431 264.82 282.922 265.677C282.403 266.533 281.775 267.289 281.02 267.944C280.265 268.6 279.419 269.11 278.482 269.484C279.083 269.538 279.601 269.748 280.029 270.094C280.456 270.44 280.784 270.859 281.029 271.333C281.275 271.806 281.439 272.325 281.53 272.89C281.621 273.455 281.684 274.029 281.712 274.593C281.712 275.203 281.675 275.887 281.603 276.652C281.53 277.417 281.466 278.227 281.421 279.074C281.375 279.93 281.366 280.777 281.402 281.624C281.43 282.472 281.539 283.227 281.721 283.911L275.689 284.548C275.598 283.983 275.553 283.291 275.553 282.472C275.553 281.652 275.589 280.814 275.662 279.958C275.735 279.102 275.817 278.273 275.89 277.48C275.962 276.688 275.999 276.032 275.999 275.513C275.999 274.575 275.853 273.828 275.571 273.263C275.289 272.699 274.889 272.325 274.389 272.134C273.888 271.943 273.215 271.897 272.369 271.979L271.05 272.116L269.367 285.195L263.654 285.796L263.627 285.805ZM271.559 267.48L274.052 267.216C274.925 267.125 275.717 266.779 276.408 266.168C277.099 265.567 277.636 264.82 278.018 263.928C278.4 263.044 278.582 262.079 278.582 261.05C278.582 259.811 278.291 258.873 277.718 258.235C277.145 257.598 276.344 257.334 275.316 257.443L272.733 257.716L271.55 267.471L271.559 267.48Z" fill="black"/>
<path d="M295.612 282.982C294.066 283.146 292.674 282.963 291.418 282.444C290.163 281.925 289.099 281.114 288.216 280.012C287.343 278.91 286.67 277.553 286.197 275.95C285.724 274.347 285.496 272.517 285.496 270.458C285.496 268.4 285.733 266.341 286.197 264.383C286.67 262.425 287.325 260.604 288.171 258.909C289.017 257.215 290.017 255.713 291.164 254.392C292.31 253.071 293.583 252.015 294.975 251.222C296.367 250.421 297.823 249.947 299.333 249.783C300.934 249.61 302.353 249.783 303.599 250.312C304.846 250.84 305.892 251.641 306.756 252.753C307.62 253.864 308.285 255.212 308.748 256.815C309.222 258.418 309.449 260.248 309.449 262.307C309.449 264.365 309.221 266.423 308.767 268.373C308.312 270.331 307.666 272.143 306.838 273.819C306.01 275.495 305.01 276.998 303.845 278.309C302.681 279.63 301.407 280.695 300.033 281.506C298.66 282.317 297.186 282.809 295.612 282.972V282.982ZM295.976 278.355C296.731 278.273 297.486 277.927 298.241 277.298C298.996 276.67 299.715 275.859 300.397 274.848C301.08 273.837 301.671 272.681 302.171 271.369C302.672 270.058 303.063 268.682 303.354 267.225C303.645 265.768 303.781 264.292 303.781 262.771C303.781 261.441 303.672 260.239 303.463 259.174C303.254 258.108 302.944 257.206 302.535 256.478C302.126 255.749 301.634 255.203 301.061 254.838C300.488 254.474 299.824 254.328 299.06 254.41C298.296 254.492 297.495 254.847 296.722 255.476C295.949 256.104 295.221 256.924 294.548 257.935C293.865 258.946 293.274 260.103 292.774 261.414C292.273 262.726 291.891 264.101 291.618 265.558C291.346 267.006 291.209 268.491 291.209 270.012C291.209 271.342 291.309 272.544 291.5 273.619C291.7 274.684 292.001 275.586 292.41 276.315C292.819 277.043 293.32 277.59 293.911 277.954C294.502 278.318 295.185 278.455 295.976 278.373V278.355Z" fill="black"/>
<path d="M310.541 280.869L314.534 248.736L322.795 247.871C325.096 247.625 327.043 247.98 328.653 248.909C330.254 249.847 331.491 251.25 332.347 253.135C333.211 255.011 333.638 257.243 333.638 259.811C333.638 262.38 333.329 264.693 332.71 266.997C332.092 269.302 331.164 271.387 329.918 273.245C328.68 275.103 327.17 276.624 325.405 277.808C323.631 278.992 321.63 279.703 319.392 279.94L310.541 280.869ZM316.89 275.604L319.338 275.349C320.575 275.222 321.73 274.73 322.785 273.892C323.841 273.054 324.75 271.952 325.505 270.586C326.261 269.22 326.852 267.671 327.279 265.95C327.707 264.228 327.916 262.407 327.916 260.503C327.916 258.6 327.707 257.161 327.279 255.913C326.852 254.674 326.206 253.764 325.333 253.19C324.459 252.616 323.413 252.397 322.203 252.516L319.665 252.78L316.9 275.604H316.89Z" fill="black"/>
<path d="M345.255 277.717C343.591 277.89 342.144 277.754 340.925 277.307C339.697 276.861 338.696 276.123 337.905 275.103C337.122 274.083 336.577 272.817 336.267 271.323C335.967 269.83 335.922 268.108 336.131 266.178L338.578 246.204L344.291 245.603L341.753 265.995C341.453 268.482 341.616 270.322 342.253 271.533C342.89 272.735 343.964 273.263 345.474 273.1C346.984 272.936 348.166 272.189 349.103 270.832C350.04 269.475 350.677 267.571 351.005 265.112L353.543 244.628L359.265 244.027L356.727 264.602C356.363 267.188 355.708 269.42 354.753 271.305C353.798 273.191 352.533 274.675 350.941 275.75C349.349 276.825 347.457 277.48 345.246 277.708L345.255 277.717Z" fill="black"/>
<path d="M370.482 275.103C368.881 275.276 367.443 275.103 366.17 274.584C364.896 274.065 363.814 273.273 362.922 272.198C362.031 271.123 361.339 269.802 360.857 268.236C360.375 266.669 360.129 264.866 360.129 262.835C360.129 260.804 360.357 258.718 360.812 256.742C361.266 254.775 361.903 252.935 362.713 251.222C363.532 249.519 364.523 247.989 365.688 246.641C366.852 245.293 368.162 244.209 369.609 243.39C371.064 242.57 372.574 242.078 374.148 241.914C375.567 241.768 376.868 241.878 378.051 242.251C379.233 242.625 380.234 243.289 381.071 244.228C381.899 245.166 382.554 246.386 383.018 247.88C383.482 249.374 383.709 251.168 383.673 253.263L377.869 254.51C377.987 252.498 377.887 250.895 377.55 249.711C377.214 248.517 376.722 247.67 376.077 247.16C375.422 246.65 374.676 246.441 373.83 246.532C372.984 246.623 372.201 246.978 371.401 247.607C370.6 248.235 369.872 249.055 369.226 250.066C368.571 251.077 367.998 252.224 367.498 253.518C366.998 254.811 366.606 256.195 366.315 257.662C366.024 259.128 365.888 260.622 365.888 262.134C365.888 263.891 366.079 265.412 366.452 266.706C366.834 267.999 367.398 268.974 368.153 269.639C368.908 270.303 369.79 270.577 370.782 270.476C371.692 270.385 372.583 269.948 373.457 269.174C374.33 268.4 375.076 267.38 375.676 266.123C376.277 264.866 376.722 263.436 376.995 261.824L382.572 261.642C382.299 263.454 381.817 265.157 381.116 266.742C380.416 268.327 379.552 269.711 378.506 270.877C377.459 272.043 376.259 272.999 374.894 273.737C373.529 274.475 372.047 274.921 370.445 275.094L370.482 275.103Z" fill="black"/>
<path d="M388.321 272.681L391.724 245.202L384.51 245.958L385.101 241.304L405.206 239.191L404.614 243.845L397.355 244.61L393.952 272.089L388.321 272.681Z" fill="black"/>
<path d="M403.696 271.059L407.689 238.927L413.402 238.326L409.409 270.458L403.696 271.059Z" fill="black"/>
<path d="M424.619 269.411C423.072 269.575 421.681 269.393 420.425 268.873C419.17 268.354 418.105 267.544 417.223 266.442C416.35 265.34 415.676 263.983 415.203 262.38C414.73 260.777 414.503 258.946 414.503 256.887C414.503 254.829 414.739 252.771 415.203 250.813C415.676 248.854 416.331 247.033 417.177 245.339C418.024 243.645 419.024 242.142 420.17 240.821C421.317 239.501 422.59 238.444 423.982 237.652C425.374 236.85 426.83 236.377 428.34 236.213C429.941 236.04 431.36 236.213 432.606 236.741C433.853 237.269 434.899 238.071 435.763 239.182C436.627 240.293 437.291 241.641 437.755 243.244C438.228 244.847 438.456 246.678 438.456 248.736C438.456 250.794 438.228 252.853 437.773 254.802C437.319 256.76 436.673 258.572 435.845 260.248C435.017 261.924 434.016 263.427 432.852 264.739C431.687 266.059 430.414 267.125 429.04 267.935C427.666 268.746 426.193 269.238 424.619 269.402V269.411ZM424.983 264.784C425.738 264.702 426.493 264.356 427.248 263.728C428.003 263.099 428.722 262.288 429.404 261.277C430.086 260.267 430.678 259.11 431.178 257.798C431.678 256.487 432.07 255.111 432.361 253.654C432.652 252.197 432.788 250.721 432.788 249.2C432.788 247.871 432.679 246.668 432.47 245.603C432.261 244.537 431.951 243.636 431.542 242.907C431.133 242.178 430.641 241.632 430.068 241.267C429.495 240.903 428.831 240.757 428.067 240.839C427.303 240.921 426.502 241.277 425.729 241.905C424.956 242.534 424.228 243.353 423.555 244.364C422.872 245.375 422.281 246.532 421.781 247.843C421.28 249.155 420.898 250.53 420.625 251.987C420.352 253.436 420.216 254.92 420.216 256.441C420.216 257.771 420.316 258.973 420.507 260.048C420.707 261.114 421.007 262.015 421.417 262.744C421.826 263.473 422.326 264.019 422.918 264.383C423.509 264.748 424.191 264.884 424.983 264.802V264.784Z" fill="black"/>
<path d="M439.547 267.289L443.541 235.156L449.754 234.5L455.877 255.303C456.241 251.997 456.605 248.882 456.968 245.967L458.515 233.58L464.192 232.979L460.198 265.112L453.894 265.777L447.817 244.929C447.544 248.226 447.225 251.341 446.861 254.255L445.269 266.688L439.556 267.289H439.547Z" fill="black"/>
<path d="M473.807 264.228C472.261 264.392 470.878 264.247 469.659 263.8C468.431 263.354 467.43 262.662 466.639 261.706C465.847 260.758 465.301 259.583 464.983 258.181C464.665 256.778 464.646 255.184 464.919 253.399L470.414 252.233C470.141 253.773 470.123 255.111 470.369 256.232C470.614 257.361 471.024 258.217 471.615 258.8C472.206 259.392 473.025 259.629 474.089 259.52C474.844 259.438 475.518 259.192 476.109 258.782C476.7 258.372 477.164 257.835 477.519 257.179C477.865 256.523 478.037 255.767 478.037 254.92C478.037 254.073 477.883 253.417 477.583 252.853C477.282 252.297 476.855 251.796 476.309 251.377C475.763 250.949 475.163 250.567 474.49 250.23C473.825 249.893 473.134 249.547 472.425 249.2C471.715 248.854 471.024 248.463 470.359 248.035C469.695 247.607 469.086 247.097 468.54 246.523C467.994 245.949 467.576 245.239 467.266 244.41C466.966 243.581 466.812 242.588 466.812 241.441C466.812 240.047 467.048 238.754 467.512 237.57C467.985 236.386 468.658 235.338 469.55 234.427C470.441 233.517 471.488 232.779 472.679 232.214C473.871 231.65 475.199 231.294 476.646 231.14C478.638 230.93 480.303 231.185 481.64 231.914C482.968 232.633 483.951 233.735 484.587 235.211C485.224 236.686 485.415 238.471 485.179 240.557L479.411 241.705C479.62 240.384 479.611 239.273 479.366 238.371C479.12 237.47 478.747 236.805 478.229 236.377C477.71 235.948 477.064 235.775 476.282 235.857C475.581 235.93 474.972 236.158 474.444 236.531C473.916 236.905 473.489 237.415 473.17 238.052C472.852 238.69 472.697 239.409 472.697 240.193C472.697 240.976 472.852 241.604 473.152 242.169C473.452 242.725 473.871 243.207 474.399 243.608C474.926 244.009 475.527 244.373 476.191 244.71C476.855 245.047 477.555 245.384 478.274 245.721C479.002 246.058 479.693 246.432 480.357 246.841C481.021 247.26 481.622 247.752 482.149 248.335C482.677 248.918 483.105 249.619 483.423 250.448C483.741 251.277 483.896 252.288 483.896 253.463C483.896 255.285 483.478 256.969 482.65 258.527C481.813 260.084 480.648 261.369 479.129 262.398C477.619 263.418 475.836 264.037 473.771 264.256L473.807 264.228Z" fill="black"/>
</g>
<defs>
<clipPath id="clip0_20_785">
<rect width="728" height="288" fill="white"/>
</clipPath>
</defs>
</svg>
