<svg width="1309" height="438" viewBox="0 0 1309 438" fill="none" xmlns="http://www.w3.org/2000/svg">
<mask id="path-1-outside-1_30_354" maskUnits="userSpaceOnUse" x="0" y="-0.00195312" width="1309" height="438" fill="black">
<rect fill="white" y="-0.00195312" width="1309" height="438"/>
<path d="M208.022 248.812L212.643 248.602C235.586 247.537 253.452 248.812 265.721 252.397C277.502 255.853 285.703 261.021 290.112 267.787C294.603 274.698 296.865 283.241 296.865 293.172C296.865 307.851 293.285 321.819 286.223 334.673C279.048 347.721 269.545 359.461 257.96 369.57C246.293 379.743 233.292 388.14 219.315 394.503C205.37 400.833 191.506 404.757 178.099 406.162C160.834 407.97 144.579 405.806 129.788 399.767C114.916 393.711 101.817 384.281 90.8341 371.766C79.7856 359.186 70.999 343.571 64.7344 325.355C58.4373 307.108 55.2481 286.131 55.2481 263.007C55.2481 233.972 60.0319 207.666 69.4695 184.833C78.907 161.999 91.729 141.943 107.578 125.197C123.442 108.451 141.374 95.1126 160.834 85.5367C180.344 75.9607 200.618 70.0181 221.104 67.8704C238.531 66.0456 254.526 67.0953 268.601 71.0032C282.562 74.8626 294.571 81.4511 304.285 90.5588C313.999 99.6664 321.305 111.229 326.024 124.922C330.759 138.697 332.483 155.023 331.182 173.432L330.824 178.373L347.258 176.662L366.345 77.2041L364.717 75.67C358.86 70.0989 349.764 64.6892 336.942 59.1342C324.396 53.7083 309.329 49.5743 292.146 46.8937C274.931 44.2131 255.503 43.9547 234.398 46.167C206.704 49.0576 178.912 56.6473 151.755 68.7586C124.598 80.8537 99.4905 97.2442 77.1496 117.446C54.7111 137.744 36.552 162.29 23.1768 190.404C9.80152 218.518 3 250.266 3 284.694C3 314.358 8.82523 341.326 20.313 364.822C31.8983 388.512 49.4229 406.904 72.3983 419.468C95.4064 432.064 124.76 436.601 159.663 432.968C178.766 430.982 197.12 426.525 214.222 419.726C231.258 412.944 247.481 403.998 262.467 393.098C271.921 386.218 280.903 378.693 289.315 370.619L295.254 408.503C295.677 411.184 298.037 412.944 300.803 412.653C303.471 412.379 305.782 410.263 306.302 407.615L344.118 217.598L209.08 231.679L208.006 248.796L208.022 248.812Z"/>
<path d="M441.194 154.361C451.689 103.445 465.845 69.356 476.796 39.6754L461.729 41.2418L396.463 76.5905L393.274 91.8668C412.898 104.769 420.204 128.459 410.164 175.257L376.384 335.949C368.623 372.993 375.473 397.199 403.769 394.244C428.405 391.677 446.206 363.546 454.423 333.704L445.75 327.81C441.194 334.625 432.977 340.922 424.304 341.827C412.442 343.07 404.225 330.329 408.781 309.482L441.178 154.361H441.194Z"/>
<path d="M537.034 330.071C525.172 331.314 517.41 318.525 521.966 297.677L528.361 267.577C539.312 216.16 552.101 180.86 563.052 152.988L547.984 154.555L482.263 189.952L479.074 205.228C499.153 218.082 508.282 237.961 499.153 277.411L488.203 324.306C479.53 361.447 490.936 385.169 517.866 382.359C541.134 379.937 558.024 351.903 566.241 322.061L557.568 316.167C553.012 322.982 547.073 329.037 537.034 330.087V330.071Z"/>
<path d="M552.557 49.8973C533.389 51.8997 516.043 70.9224 516.043 88.5887C516.043 104.446 527.45 118.657 545.706 116.751C565.786 114.652 584.498 98.2131 584.498 77.8339C584.498 59.7155 573.092 47.7657 552.557 49.9135V49.8973Z"/>
<path d="M811.21 305.089C788.853 307.415 779.269 292.122 784.736 266.172C784.736 266.172 792.839 227.48 796.305 214.691C803.514 188.175 817.572 148.16 882.398 141.394L885.587 126.117C885.587 126.117 811.373 146.044 835.845 58.8435C838.953 47.7819 844.664 25.9816 849.757 6.36143C850.685 2.79265 845.673 1.61382 844.241 5.05341C835.78 25.5295 826.017 48.8477 820.794 60.3937C808.964 86.5217 786.445 135.58 740.119 141.281C705.168 145.576 665.921 161.159 690.377 74.0068C693.42 63.1712 698.611 42.566 703.02 24.7544C703.899 21.2179 698.985 20.0391 697.52 23.4302C689.466 42.1623 680.354 63.5749 675.326 75.5893C664.261 101.976 648.136 150.889 591.804 156.767L588.615 172.043C588.615 172.043 635.949 165.745 622.102 232.874C618.636 249.652 608.238 299.986 608.238 299.986C600.021 338.888 610.516 374.479 648.852 370.49C678.06 367.438 698.594 342.65 711.839 298.242L698.139 293.333C691.744 307.14 682.16 318.557 665.742 320.269C643.385 322.594 633.801 307.302 639.268 281.351C639.268 281.351 647.371 242.66 650.837 229.87C658.046 203.355 673.373 163.194 736.93 156.573C758.978 154.28 781.4 150.614 767.553 217.695C764.087 234.473 753.69 284.807 753.69 284.807C745.473 323.708 755.968 359.299 794.304 355.311C823.511 352.259 844.046 327.471 857.291 283.063L843.59 278.154C837.196 291.961 827.612 303.378 811.194 305.089H811.21Z"/>
<path d="M1102.49 193.181C1099.3 132.367 1060.96 101.039 1003.91 106.982C936.827 113.974 878.867 180.715 878.867 248.215C878.867 304.379 916.748 342.553 978.824 336.078C1019.44 331.847 1062.35 307.883 1085.61 250.653L1076.94 244.759C1048.65 272.615 1019.89 283.774 988.863 287.003C960.111 290.007 926.331 283.564 913.558 258.631L1095.2 203.904L1102.5 193.181H1102.49ZM908.075 232.486C909.442 193.843 945.955 162.403 993.419 157.461C1032.21 153.408 1059.14 167.36 1068.27 183.169L908.075 232.486Z"/>
<path d="M1257.67 80.5145C1232.56 83.1306 1201.08 102.718 1175.06 134.886C1180.54 115.298 1185.55 99.8279 1190.58 87.5229L1175.51 89.0893L1109.34 124.519L1106.15 139.795C1128.51 153.311 1138.09 177.227 1131.26 210.557L1127.16 230.452C1118.94 270.71 1103.89 288.586 1071.47 304.653L1068.28 319.93L1186.5 307.592L1189.69 292.316C1161.85 282.53 1147.25 262.312 1155.91 221.554L1165.04 179.391C1185.11 150.566 1208.4 139.989 1223 138.471C1238.52 136.856 1246.72 142.33 1250.84 156.848L1265.9 155.281L1305.15 105.448C1297.84 87.1838 1277.31 78.4637 1257.69 80.4984L1257.67 80.5145Z"/>
</mask>
<path d="M208.022 248.812L212.643 248.602C235.586 247.537 253.452 248.812 265.721 252.397C277.502 255.853 285.703 261.021 290.112 267.787C294.603 274.698 296.865 283.241 296.865 293.172C296.865 307.851 293.285 321.819 286.223 334.673C279.048 347.721 269.545 359.461 257.96 369.57C246.293 379.743 233.292 388.14 219.315 394.503C205.37 400.833 191.506 404.757 178.099 406.162C160.834 407.97 144.579 405.806 129.788 399.767C114.916 393.711 101.817 384.281 90.8341 371.766C79.7856 359.186 70.999 343.571 64.7344 325.355C58.4373 307.108 55.2481 286.131 55.2481 263.007C55.2481 233.972 60.0319 207.666 69.4695 184.833C78.907 161.999 91.729 141.943 107.578 125.197C123.442 108.451 141.374 95.1126 160.834 85.5367C180.344 75.9607 200.618 70.0181 221.104 67.8704C238.531 66.0456 254.526 67.0953 268.601 71.0032C282.562 74.8626 294.571 81.4511 304.285 90.5588C313.999 99.6664 321.305 111.229 326.024 124.922C330.759 138.697 332.483 155.023 331.182 173.432L330.824 178.373L347.258 176.662L366.345 77.2041L364.717 75.67C358.86 70.0989 349.764 64.6892 336.942 59.1342C324.396 53.7083 309.329 49.5743 292.146 46.8937C274.931 44.2131 255.503 43.9547 234.398 46.167C206.704 49.0576 178.912 56.6473 151.755 68.7586C124.598 80.8537 99.4905 97.2442 77.1496 117.446C54.7111 137.744 36.552 162.29 23.1768 190.404C9.80152 218.518 3 250.266 3 284.694C3 314.358 8.82523 341.326 20.313 364.822C31.8983 388.512 49.4229 406.904 72.3983 419.468C95.4064 432.064 124.76 436.601 159.663 432.968C178.766 430.982 197.12 426.525 214.222 419.726C231.258 412.944 247.481 403.998 262.467 393.098C271.921 386.218 280.903 378.693 289.315 370.619L295.254 408.503C295.677 411.184 298.037 412.944 300.803 412.653C303.471 412.379 305.782 410.263 306.302 407.615L344.118 217.598L209.08 231.679L208.006 248.796L208.022 248.812Z" fill="white"/>
<path d="M441.194 154.361C451.689 103.445 465.845 69.356 476.796 39.6754L461.729 41.2418L396.463 76.5905L393.274 91.8668C412.898 104.769 420.204 128.459 410.164 175.257L376.384 335.949C368.623 372.993 375.473 397.199 403.769 394.244C428.405 391.677 446.206 363.546 454.423 333.704L445.75 327.81C441.194 334.625 432.977 340.922 424.304 341.827C412.442 343.07 404.225 330.329 408.781 309.482L441.178 154.361H441.194Z" fill="white"/>
<path d="M537.034 330.071C525.172 331.314 517.41 318.525 521.966 297.677L528.361 267.577C539.312 216.16 552.101 180.86 563.052 152.988L547.984 154.555L482.263 189.952L479.074 205.228C499.153 218.082 508.282 237.961 499.153 277.411L488.203 324.306C479.53 361.447 490.936 385.169 517.866 382.359C541.134 379.937 558.024 351.903 566.241 322.061L557.568 316.167C553.012 322.982 547.073 329.037 537.034 330.087V330.071Z" fill="white"/>
<path d="M552.557 49.8973C533.389 51.8997 516.043 70.9224 516.043 88.5887C516.043 104.446 527.45 118.657 545.706 116.751C565.786 114.652 584.498 98.2131 584.498 77.8339C584.498 59.7155 573.092 47.7657 552.557 49.9135V49.8973Z" fill="white"/>
<path d="M811.21 305.089C788.853 307.415 779.269 292.122 784.736 266.172C784.736 266.172 792.839 227.48 796.305 214.691C803.514 188.175 817.572 148.16 882.398 141.394L885.587 126.117C885.587 126.117 811.373 146.044 835.845 58.8435C838.953 47.7819 844.664 25.9816 849.757 6.36143C850.685 2.79265 845.673 1.61382 844.241 5.05341C835.78 25.5295 826.017 48.8477 820.794 60.3937C808.964 86.5217 786.445 135.58 740.119 141.281C705.168 145.576 665.921 161.159 690.377 74.0068C693.42 63.1712 698.611 42.566 703.02 24.7544C703.899 21.2179 698.985 20.0391 697.52 23.4302C689.466 42.1623 680.354 63.5749 675.326 75.5893C664.261 101.976 648.136 150.889 591.804 156.767L588.615 172.043C588.615 172.043 635.949 165.745 622.102 232.874C618.636 249.652 608.238 299.986 608.238 299.986C600.021 338.888 610.516 374.479 648.852 370.49C678.06 367.438 698.594 342.65 711.839 298.242L698.139 293.333C691.744 307.14 682.16 318.557 665.742 320.269C643.385 322.594 633.801 307.302 639.268 281.351C639.268 281.351 647.371 242.66 650.837 229.87C658.046 203.355 673.373 163.194 736.93 156.573C758.978 154.28 781.4 150.614 767.553 217.695C764.087 234.473 753.69 284.807 753.69 284.807C745.473 323.708 755.968 359.299 794.304 355.311C823.511 352.259 844.046 327.471 857.291 283.063L843.59 278.154C837.196 291.961 827.612 303.378 811.194 305.089H811.21Z" fill="white"/>
<path d="M1102.49 193.181C1099.3 132.367 1060.96 101.039 1003.91 106.982C936.827 113.974 878.867 180.715 878.867 248.215C878.867 304.379 916.748 342.553 978.824 336.078C1019.44 331.847 1062.35 307.883 1085.61 250.653L1076.94 244.759C1048.65 272.615 1019.89 283.774 988.863 287.003C960.111 290.007 926.331 283.564 913.558 258.631L1095.2 203.904L1102.5 193.181H1102.49ZM908.075 232.486C909.442 193.843 945.955 162.403 993.419 157.461C1032.21 153.408 1059.14 167.36 1068.27 183.169L908.075 232.486Z" fill="white"/>
<path d="M1257.67 80.5145C1232.56 83.1306 1201.08 102.718 1175.06 134.886C1180.54 115.298 1185.55 99.8279 1190.58 87.5229L1175.51 89.0893L1109.34 124.519L1106.15 139.795C1128.51 153.311 1138.09 177.227 1131.26 210.557L1127.16 230.452C1118.94 270.71 1103.89 288.586 1071.47 304.653L1068.28 319.93L1186.5 307.592L1189.69 292.316C1161.85 282.53 1147.25 262.312 1155.91 221.554L1165.04 179.391C1185.11 150.566 1208.4 139.989 1223 138.471C1238.52 136.856 1246.72 142.33 1250.84 156.848L1265.9 155.281L1305.15 105.448C1297.84 87.1838 1277.31 78.4637 1257.69 80.4984L1257.67 80.5145Z" fill="white"/>
<path d="M208.022 248.812L212.643 248.602C235.586 247.537 253.452 248.812 265.721 252.397C277.502 255.853 285.703 261.021 290.112 267.787C294.603 274.698 296.865 283.241 296.865 293.172C296.865 307.851 293.285 321.819 286.223 334.673C279.048 347.721 269.545 359.461 257.96 369.57C246.293 379.743 233.292 388.14 219.315 394.503C205.37 400.833 191.506 404.757 178.099 406.162C160.834 407.97 144.579 405.806 129.788 399.767C114.916 393.711 101.817 384.281 90.8341 371.766C79.7856 359.186 70.999 343.571 64.7344 325.355C58.4373 307.108 55.2481 286.131 55.2481 263.007C55.2481 233.972 60.0319 207.666 69.4695 184.833C78.907 161.999 91.729 141.943 107.578 125.197C123.442 108.451 141.374 95.1126 160.834 85.5367C180.344 75.9607 200.618 70.0181 221.104 67.8704C238.531 66.0456 254.526 67.0953 268.601 71.0032C282.562 74.8626 294.571 81.4511 304.285 90.5588C313.999 99.6664 321.305 111.229 326.024 124.922C330.759 138.697 332.483 155.023 331.182 173.432L330.824 178.373L347.258 176.662L366.345 77.2041L364.717 75.67C358.86 70.0989 349.764 64.6892 336.942 59.1342C324.396 53.7083 309.329 49.5743 292.146 46.8937C274.931 44.2131 255.503 43.9547 234.398 46.167C206.704 49.0576 178.912 56.6473 151.755 68.7586C124.598 80.8537 99.4905 97.2442 77.1496 117.446C54.7111 137.744 36.552 162.29 23.1768 190.404C9.80152 218.518 3 250.266 3 284.694C3 314.358 8.82523 341.326 20.313 364.822C31.8983 388.512 49.4229 406.904 72.3983 419.468C95.4064 432.064 124.76 436.601 159.663 432.968C178.766 430.982 197.12 426.525 214.222 419.726C231.258 412.944 247.481 403.998 262.467 393.098C271.921 386.218 280.903 378.693 289.315 370.619L295.254 408.503C295.677 411.184 298.037 412.944 300.803 412.653C303.471 412.379 305.782 410.263 306.302 407.615L344.118 217.598L209.08 231.679L208.006 248.796L208.022 248.812Z" stroke="black" stroke-width="6" stroke-linejoin="round" mask="url(#path-1-outside-1_30_354)"/>
<path d="M441.194 154.361C451.689 103.445 465.845 69.356 476.796 39.6754L461.729 41.2418L396.463 76.5905L393.274 91.8668C412.898 104.769 420.204 128.459 410.164 175.257L376.384 335.949C368.623 372.993 375.473 397.199 403.769 394.244C428.405 391.677 446.206 363.546 454.423 333.704L445.75 327.81C441.194 334.625 432.977 340.922 424.304 341.827C412.442 343.07 404.225 330.329 408.781 309.482L441.178 154.361H441.194Z" stroke="black" stroke-width="6" stroke-linejoin="round" mask="url(#path-1-outside-1_30_354)"/>
<path d="M537.034 330.071C525.172 331.314 517.41 318.525 521.966 297.677L528.361 267.577C539.312 216.16 552.101 180.86 563.052 152.988L547.984 154.555L482.263 189.952L479.074 205.228C499.153 218.082 508.282 237.961 499.153 277.411L488.203 324.306C479.53 361.447 490.936 385.169 517.866 382.359C541.134 379.937 558.024 351.903 566.241 322.061L557.568 316.167C553.012 322.982 547.073 329.037 537.034 330.087V330.071Z" stroke="black" stroke-width="6" stroke-linejoin="round" mask="url(#path-1-outside-1_30_354)"/>
<path d="M552.557 49.8973C533.389 51.8997 516.043 70.9224 516.043 88.5887C516.043 104.446 527.45 118.657 545.706 116.751C565.786 114.652 584.498 98.2131 584.498 77.8339C584.498 59.7155 573.092 47.7657 552.557 49.9135V49.8973Z" stroke="black" stroke-width="6" stroke-linejoin="round" mask="url(#path-1-outside-1_30_354)"/>
<path d="M811.21 305.089C788.853 307.415 779.269 292.122 784.736 266.172C784.736 266.172 792.839 227.48 796.305 214.691C803.514 188.175 817.572 148.16 882.398 141.394L885.587 126.117C885.587 126.117 811.373 146.044 835.845 58.8435C838.953 47.7819 844.664 25.9816 849.757 6.36143C850.685 2.79265 845.673 1.61382 844.241 5.05341C835.78 25.5295 826.017 48.8477 820.794 60.3937C808.964 86.5217 786.445 135.58 740.119 141.281C705.168 145.576 665.921 161.159 690.377 74.0068C693.42 63.1712 698.611 42.566 703.02 24.7544C703.899 21.2179 698.985 20.0391 697.52 23.4302C689.466 42.1623 680.354 63.5749 675.326 75.5893C664.261 101.976 648.136 150.889 591.804 156.767L588.615 172.043C588.615 172.043 635.949 165.745 622.102 232.874C618.636 249.652 608.238 299.986 608.238 299.986C600.021 338.888 610.516 374.479 648.852 370.49C678.06 367.438 698.594 342.65 711.839 298.242L698.139 293.333C691.744 307.14 682.16 318.557 665.742 320.269C643.385 322.594 633.801 307.302 639.268 281.351C639.268 281.351 647.371 242.66 650.837 229.87C658.046 203.355 673.373 163.194 736.93 156.573C758.978 154.28 781.4 150.614 767.553 217.695C764.087 234.473 753.69 284.807 753.69 284.807C745.473 323.708 755.968 359.299 794.304 355.311C823.511 352.259 844.046 327.471 857.291 283.063L843.59 278.154C837.196 291.961 827.612 303.378 811.194 305.089H811.21Z" stroke="black" stroke-width="6" stroke-linejoin="round" mask="url(#path-1-outside-1_30_354)"/>
<path d="M1102.49 193.181C1099.3 132.367 1060.96 101.039 1003.91 106.982C936.827 113.974 878.867 180.715 878.867 248.215C878.867 304.379 916.748 342.553 978.824 336.078C1019.44 331.847 1062.35 307.883 1085.61 250.653L1076.94 244.759C1048.65 272.615 1019.89 283.774 988.863 287.003C960.111 290.007 926.331 283.564 913.558 258.631L1095.2 203.904L1102.5 193.181H1102.49ZM908.075 232.486C909.442 193.843 945.955 162.403 993.419 157.461C1032.21 153.408 1059.14 167.36 1068.27 183.169L908.075 232.486Z" stroke="black" stroke-width="6" stroke-linejoin="round" mask="url(#path-1-outside-1_30_354)"/>
<path d="M1257.67 80.5145C1232.56 83.1306 1201.08 102.718 1175.06 134.886C1180.54 115.298 1185.55 99.8279 1190.58 87.5229L1175.51 89.0893L1109.34 124.519L1106.15 139.795C1128.51 153.311 1138.09 177.227 1131.26 210.557L1127.16 230.452C1118.94 270.71 1103.89 288.586 1071.47 304.653L1068.28 319.93L1186.5 307.592L1189.69 292.316C1161.85 282.53 1147.25 262.312 1155.91 221.554L1165.04 179.391C1185.11 150.566 1208.4 139.989 1223 138.471C1238.52 136.856 1246.72 142.33 1250.84 156.848L1265.9 155.281L1305.15 105.448C1297.84 87.1838 1277.31 78.4637 1257.69 80.4984L1257.67 80.5145Z" stroke="black" stroke-width="6" stroke-linejoin="round" mask="url(#path-1-outside-1_30_354)"/>
</svg>
