<svg width="1303" height="432" viewBox="0 0 1303 432" fill="none" xmlns="http://www.w3.org/2000/svg">
<path d="M205.022 245.814L209.643 245.604C232.586 244.539 250.452 245.814 262.721 249.399C274.502 252.855 282.703 258.022 287.112 264.789C291.603 271.7 293.865 280.243 293.865 290.174C293.865 304.853 290.285 318.821 283.223 331.675C276.048 344.723 266.545 356.463 254.96 366.572C243.293 376.745 230.292 385.142 216.315 391.505C202.37 397.835 188.506 401.759 175.099 403.164C157.834 404.972 141.579 402.808 126.788 396.769C111.916 390.713 98.8174 381.283 87.8341 368.768C76.7856 356.188 67.999 340.573 61.7344 322.357C55.4373 304.11 52.2481 283.133 52.2481 260.009C52.2481 230.974 57.0319 204.668 66.4695 181.835C75.907 159.001 88.729 138.945 104.578 122.199C120.442 105.453 138.374 92.1146 157.834 82.5386C177.344 72.9627 197.618 67.0201 218.104 64.8724C235.531 63.0476 251.526 64.0972 265.601 68.0051C279.562 71.8646 291.571 78.4531 301.285 87.5607C310.999 96.6684 318.305 108.231 323.024 121.924C327.759 135.699 329.483 152.025 328.182 170.434L327.824 175.375L344.258 173.664L363.345 74.2061L361.717 72.672C355.86 67.1008 346.764 61.6911 333.942 56.1361C321.396 50.7103 306.329 46.5763 289.146 43.8957C271.931 41.2151 252.503 40.9567 231.398 43.169C203.704 46.0596 175.912 53.6493 148.755 65.7605C121.598 77.8556 96.4905 94.2462 74.1496 114.448C51.7111 134.746 33.552 159.292 20.1768 187.406C6.80152 215.52 0 247.268 0 281.696C0 311.36 5.82523 338.328 17.313 361.824C28.8983 385.514 46.4229 403.906 69.3983 416.47C92.4064 429.066 121.76 433.603 156.663 429.97C175.766 427.984 194.12 423.527 211.222 416.728C228.258 409.946 244.481 401 259.467 390.1C268.921 383.22 277.903 375.695 286.315 367.621L292.254 405.505C292.677 408.186 295.037 409.946 297.803 409.655C300.471 409.381 302.782 407.265 303.302 404.617L341.118 214.6L206.08 228.681L205.006 245.798L205.022 245.814Z" fill="white"/>
<path d="M438.194 151.363C448.689 100.447 462.845 66.358 473.796 36.6774L458.729 38.2438L393.463 73.5924L390.274 88.8688C409.898 101.771 417.204 125.461 407.164 172.259L373.384 332.951C365.623 369.995 372.473 394.201 400.769 391.246C425.405 388.679 443.206 360.548 451.423 330.706L442.75 324.812C438.194 331.627 429.977 337.924 421.304 338.829C409.442 340.072 401.225 327.331 405.781 306.484L438.178 151.363H438.194Z" fill="white"/>
<path d="M534.034 327.073C522.172 328.316 514.41 315.527 518.966 294.679L525.361 264.579C536.312 213.162 549.101 177.862 560.052 149.99L544.984 151.557L479.263 186.954L476.074 202.23C496.153 215.084 505.282 234.963 496.153 274.413L485.203 321.308C476.53 358.449 487.936 382.171 514.866 379.361C538.134 376.939 555.024 348.905 563.241 319.063L554.568 313.169C550.012 319.984 544.073 326.039 534.034 327.089V327.073Z" fill="white"/>
<path d="M549.557 46.8993C530.389 48.9017 513.043 67.9244 513.043 85.5907C513.043 101.448 524.45 115.659 542.706 113.753C562.786 111.654 581.498 95.2151 581.498 74.8359C581.498 56.7174 570.092 44.7677 549.557 46.9154V46.8993Z" fill="white"/>
<path d="M808.21 302.091C785.853 304.417 776.269 289.124 781.736 263.174C781.736 263.174 789.839 224.482 793.305 211.693C800.514 185.177 814.572 145.162 879.398 138.396L882.587 123.119C882.587 123.119 808.373 143.046 832.845 55.8454C835.953 44.7838 841.664 22.9836 846.757 3.36338C847.685 -0.205399 842.673 -1.38423 841.241 2.05537C832.78 22.5314 823.017 45.8496 817.794 57.3957C805.964 83.5237 783.445 132.582 737.119 138.283C702.168 142.578 662.921 158.161 687.377 71.0087C690.42 60.1732 695.611 39.5679 700.02 21.7563C700.899 18.2198 695.985 17.041 694.52 20.4322C686.466 39.1642 677.354 60.5769 672.326 72.5912C661.261 98.9776 645.136 147.891 588.804 153.769L585.615 169.045C585.615 169.045 632.949 162.747 619.102 229.876C615.636 246.654 605.238 296.988 605.238 296.988C597.021 335.89 607.516 371.481 645.852 367.492C675.06 364.44 695.594 339.652 708.839 295.244L695.139 290.335C688.744 304.142 679.16 315.559 662.742 317.271C640.385 319.596 630.801 304.304 636.268 278.353C636.268 278.353 644.371 239.662 647.837 226.872C655.046 200.357 670.373 160.196 733.93 153.575C755.978 151.282 778.4 147.616 764.553 214.697C761.087 231.475 750.69 281.809 750.69 281.809C742.473 320.71 752.968 356.301 791.304 352.313C820.511 349.26 841.046 324.473 854.291 280.065L840.59 275.156C834.196 288.963 824.612 300.38 808.194 302.091H808.21Z" fill="white"/>
<path d="M1099.49 190.183C1096.3 129.369 1057.96 98.041 1000.91 103.984C933.827 110.976 875.867 177.717 875.867 245.217C875.867 301.381 913.748 339.555 975.824 333.08C1016.44 328.849 1059.35 304.885 1082.61 247.655L1073.94 241.761C1045.65 269.617 1016.89 280.775 985.863 284.005C957.111 287.009 923.331 280.566 910.558 255.633L1092.2 200.906L1099.5 190.183H1099.49ZM905.075 229.488C906.442 190.845 942.955 159.405 990.419 154.463C1029.21 150.41 1056.14 164.362 1065.27 180.171L905.075 229.488Z" fill="white"/>
<path d="M1254.67 77.5165C1229.56 80.1325 1198.08 99.7204 1172.06 131.888C1177.54 112.3 1182.55 96.8299 1187.58 84.5249L1172.51 86.0913L1106.34 121.521L1103.15 136.797C1125.51 150.313 1135.09 174.229 1128.26 207.559L1124.16 227.454C1115.94 267.711 1100.89 285.588 1068.47 301.655L1065.28 316.932L1183.5 304.594L1186.69 289.318C1158.85 279.532 1144.25 259.314 1152.91 218.556L1162.04 176.393C1182.11 147.568 1205.4 136.991 1220 135.473C1235.52 133.858 1243.72 139.332 1247.84 153.85L1262.9 152.283L1302.15 102.45C1294.84 84.1857 1274.31 75.4657 1254.69 77.5003L1254.67 77.5165Z" fill="white"/>
</svg>
