<svg width="311" height="397" viewBox="0 0 311 397" fill="none" xmlns="http://www.w3.org/2000/svg">
<g filter="url(#filter0_d_20_855)">
<mask id="path-1-outside-1_20_855" maskUnits="userSpaceOnUse" x="6.10352e-05" y="-0.999023" width="311" height="397" fill="black">
<rect fill="white" x="6.10352e-05" y="-0.999023" width="311" height="397"/>
<path d="M174.418 25.7523C187.734 8.51442 210.487 -2.10119 235.45 3.51023L236.187 3.68045L237.017 3.88267C272.039 12.6752 287.752 47.5734 280.237 76.8569C280.232 76.8753 280.227 76.8939 280.223 76.9124C279.728 78.8324 279.247 80.6826 278.786 82.4631C281.025 84.0318 283.167 85.7723 285.189 87.6805C299.521 101.209 305.811 121.204 301.806 140.501L299.175 153.174C297.157 162.896 292.698 171.657 286.48 178.825C286.286 179.781 286.068 180.732 285.826 181.677C285.821 181.696 285.816 181.714 285.812 181.733C285.317 183.653 284.836 185.503 284.375 187.283C286.615 188.852 288.755 190.593 290.777 192.502C305.11 206.03 311.4 226.024 307.395 245.322L304.764 257.994C299.902 281.419 280.876 299.281 257.191 302.657L255.537 291.051C257.183 302.603 257.191 302.657 257.191 302.657H257.187C257.187 302.657 257.183 302.658 257.18 302.659C257.174 302.659 257.166 302.66 257.155 302.662C257.134 302.665 257.103 302.669 257.064 302.675C256.985 302.686 256.869 302.703 256.723 302.723C256.43 302.765 256.011 302.824 255.498 302.897C254.475 303.041 253.071 303.239 251.553 303.451C250.793 303.557 249.95 303.671 249.081 303.791C248.716 304.241 248.325 304.752 247.91 305.323C246.145 307.756 244.596 310.436 243.45 312.667C242.908 313.724 242.527 314.541 242.321 314.996C242.221 315.22 242.167 315.347 242.16 315.363C242.162 315.358 242.169 315.341 242.181 315.313C242.197 315.274 242.229 315.196 242.191 315.289L242.19 315.288C239.302 322.33 233.429 336.122 229.217 346L229.216 345.999C218.712 370.636 190.825 388.674 159.59 381.195C159.509 381.176 159.427 381.156 159.345 381.136C150.372 378.945 142.627 375.031 136.198 369.92C126.54 382.49 111.889 391.47 94.5091 393.271C94.1631 393.307 93.8165 393.339 93.4699 393.369C88.3054 393.808 81.4529 393.728 73.7365 391.799C38.5997 383.074 22.8256 348.114 30.3525 318.785L30.3611 318.749C30.8113 317 31.2963 315.127 31.7978 313.188C29.5573 311.619 27.4152 309.878 25.3928 307.969C11.0599 294.441 4.76928 274.446 8.77492 255.148L11.4055 242.476L11.6436 241.382C13.7624 232.092 18.1212 223.714 24.1092 216.814C24.3034 215.859 24.5211 214.909 24.7635 213.964L24.7729 213.928C25.2231 212.179 25.7073 210.306 26.2088 208.367C23.9683 206.798 21.8262 205.057 19.8038 203.148C5.47102 189.62 -0.819613 169.625 3.1859 150.328L5.81644 137.654L6.05459 136.561C11.2744 113.675 30.0756 96.3151 53.3903 92.9923L55.0448 104.597C53.4336 93.2914 53.3912 92.9998 53.3903 92.9923H53.3918L53.3934 92.9915C53.3934 92.9915 53.3976 92.9911 53.4004 92.9907C53.4063 92.9899 53.4148 92.9883 53.4254 92.9868C53.4468 92.9838 53.4779 92.98 53.5175 92.9743C53.5968 92.9631 53.7117 92.9467 53.858 92.9259C54.1507 92.8844 54.5705 92.8243 55.083 92.7518C56.1062 92.6072 57.5106 92.4099 59.0285 92.1982C59.7909 92.0919 60.6358 91.9763 61.5075 91.8562C61.8726 91.4055 62.2649 90.895 62.6795 90.3235C64.4448 87.8905 65.9945 85.2111 67.1395 82.9808C67.6819 81.9243 68.0626 81.1075 68.2678 80.6524C68.3685 80.429 68.4227 80.3012 68.4294 80.2854C70.7731 74.5624 75.1808 64.1332 81.3744 49.6263L81.3923 49.5833C91.9407 24.9322 119.836 6.99252 150.999 14.454C151.1 14.4783 151.202 14.5026 151.303 14.5274C160.269 16.7265 168.001 20.6441 174.418 25.7523ZM228.673 163.736C226.954 163.328 225.179 164.296 224.46 166.047C218.159 181.398 213.538 192.375 211.107 197.788C206.366 208.342 191.95 240.46 165.029 243.283C163.694 243.427 143.377 246.577 138.332 240.748C133.559 235.231 133.551 223.758 138.316 206.64C140.115 200.171 143.241 187.651 145.536 178.28C145.975 176.489 145.064 174.898 143.369 174.482C141.666 174.074 139.907 175.017 139.171 176.736C132.911 191.4 128.649 201.491 126.507 206.728C126.119 207.673 109.465 248.656 80.453 252.166C77.0958 252.573 67.0418 254.005 66.9888 254.013L64.3583 266.685L66.8287 266.022C66.9978 265.979 82.7743 261.867 90.9752 270.228L90.983 270.219C96.8437 276.2 97.6193 287.13 93.2778 302.713C91.4308 309.357 87.9371 322.798 85.3385 332.896L85.2987 333.065C84.9322 334.803 85.84 336.331 87.5053 336.726C87.8889 336.822 88.2806 336.838 88.6562 336.806C89.8854 336.678 91.0092 335.89 91.6061 334.672L91.7185 334.423C96.108 323.717 101.993 309.525 105.063 302.681C109.805 292.127 124.22 260.009 151.141 257.187C152.479 257.042 172.793 253.893 177.838 259.721C182.611 265.238 182.619 276.712 177.854 293.83C176.415 299.003 173.984 308.542 170.634 322.19L170.596 322.358C170.252 324.079 171.159 325.585 172.808 325.988C174.511 326.395 176.271 325.444 176.998 323.733C181.284 313.683 186.968 300.331 189.671 293.743C190.055 292.807 206.709 251.815 235.717 248.304C239.083 247.896 249.182 246.457 249.182 246.457L251.812 233.784L249.341 234.448C249.159 234.494 233.393 238.599 225.195 230.242C219.335 224.261 218.559 213.332 222.9 197.749C224.364 192.487 227.034 182.333 230.84 167.566C231.303 165.759 230.392 164.144 228.673 163.736ZM223.084 58.9155C221.365 58.5078 219.59 59.4751 218.871 61.2259C212.57 76.5772 207.949 87.5552 205.518 92.9681C200.777 103.522 186.361 135.639 159.44 138.462C158.105 138.606 137.788 141.756 132.743 135.927C127.97 130.41 127.962 118.937 132.727 101.819C134.526 95.351 137.653 82.8295 139.947 73.4588C140.387 71.668 139.476 70.0768 137.781 69.661C136.078 69.2532 134.319 70.197 133.583 71.916L129.264 82.0516C125.324 91.3212 122.525 97.9789 120.918 101.907C120.535 102.842 103.88 143.835 74.864 147.345C71.4978 147.753 61.3998 149.192 61.3998 149.192L58.7692 161.865L61.2397 161.201C61.3996 161.161 77.1828 157.044 85.3862 165.407L85.394 165.399C91.2546 171.379 92.0302 182.309 87.6888 197.892C85.8418 204.536 82.348 217.977 79.7495 228.075C79.2858 229.882 80.1972 231.497 81.9163 231.905C82.2999 232.001 82.6915 232.017 83.0672 231.985C84.3784 231.849 85.5698 230.962 86.1295 229.602C90.519 218.896 96.404 204.704 99.4743 197.86C104.216 187.306 118.632 155.189 145.552 152.366C146.887 152.223 167.203 149.072 172.249 154.901C177.022 160.418 177.03 171.891 172.265 189.01C170.826 194.183 168.395 203.721 165.045 217.369C164.605 219.16 165.517 220.751 167.219 221.167C168.922 221.575 170.682 220.623 171.409 218.912C175.695 208.862 181.38 195.51 184.083 188.922C184.469 187.98 201.123 146.993 230.128 143.483C233.495 143.075 243.593 141.637 243.593 141.637L246.223 128.963L243.753 129.627C243.593 129.667 227.81 133.785 219.606 125.422C213.746 119.441 212.97 108.511 217.311 92.9283C218.409 88.9825 220.185 82.284 222.611 72.9513L225.251 62.7454C225.714 60.9384 224.803 59.3233 223.084 58.9155ZM67.9718 90.9973C67.9938 90.9947 68.0158 90.9922 68.0374 90.9895L68.0468 90.988C68.0218 90.991 67.9967 90.9943 67.9718 90.9973Z"/>
</mask>
<path d="M174.418 25.7523C187.734 8.51442 210.487 -2.10119 235.45 3.51023L236.187 3.68045L237.017 3.88267C272.039 12.6752 287.752 47.5734 280.237 76.8569C280.232 76.8753 280.227 76.8939 280.223 76.9124C279.728 78.8324 279.247 80.6826 278.786 82.4631C281.025 84.0318 283.167 85.7723 285.189 87.6805C299.521 101.209 305.811 121.204 301.806 140.501L299.175 153.174C297.157 162.896 292.698 171.657 286.48 178.825C286.286 179.781 286.068 180.732 285.826 181.677C285.821 181.696 285.816 181.714 285.812 181.733C285.317 183.653 284.836 185.503 284.375 187.283C286.615 188.852 288.755 190.593 290.777 192.502C305.11 206.03 311.4 226.024 307.395 245.322L304.764 257.994C299.902 281.419 280.876 299.281 257.191 302.657L255.537 291.051C257.183 302.603 257.191 302.657 257.191 302.657H257.187C257.187 302.657 257.183 302.658 257.18 302.659C257.174 302.659 257.166 302.66 257.155 302.662C257.134 302.665 257.103 302.669 257.064 302.675C256.985 302.686 256.869 302.703 256.723 302.723C256.43 302.765 256.011 302.824 255.498 302.897C254.475 303.041 253.071 303.239 251.553 303.451C250.793 303.557 249.95 303.671 249.081 303.791C248.716 304.241 248.325 304.752 247.91 305.323C246.145 307.756 244.596 310.436 243.45 312.667C242.908 313.724 242.527 314.541 242.321 314.996C242.221 315.22 242.167 315.347 242.16 315.363C242.162 315.358 242.169 315.341 242.181 315.313C242.197 315.274 242.229 315.196 242.191 315.289L242.19 315.288C239.302 322.33 233.429 336.122 229.217 346L229.216 345.999C218.712 370.636 190.825 388.674 159.59 381.195C159.509 381.176 159.427 381.156 159.345 381.136C150.372 378.945 142.627 375.031 136.198 369.92C126.54 382.49 111.889 391.47 94.5091 393.271C94.1631 393.307 93.8165 393.339 93.4699 393.369C88.3054 393.808 81.4529 393.728 73.7365 391.799C38.5997 383.074 22.8256 348.114 30.3525 318.785L30.3611 318.749C30.8113 317 31.2963 315.127 31.7978 313.188C29.5573 311.619 27.4152 309.878 25.3928 307.969C11.0599 294.441 4.76928 274.446 8.77492 255.148L11.4055 242.476L11.6436 241.382C13.7624 232.092 18.1212 223.714 24.1092 216.814C24.3034 215.859 24.5211 214.909 24.7635 213.964L24.7729 213.928C25.2231 212.179 25.7073 210.306 26.2088 208.367C23.9683 206.798 21.8262 205.057 19.8038 203.148C5.47102 189.62 -0.819613 169.625 3.1859 150.328L5.81644 137.654L6.05459 136.561C11.2744 113.675 30.0756 96.3151 53.3903 92.9923L55.0448 104.597C53.4336 93.2914 53.3912 92.9998 53.3903 92.9923H53.3918L53.3934 92.9915C53.3934 92.9915 53.3976 92.9911 53.4004 92.9907C53.4063 92.9899 53.4148 92.9883 53.4254 92.9868C53.4468 92.9838 53.4779 92.98 53.5175 92.9743C53.5968 92.9631 53.7117 92.9467 53.858 92.9259C54.1507 92.8844 54.5705 92.8243 55.083 92.7518C56.1062 92.6072 57.5106 92.4099 59.0285 92.1982C59.7909 92.0919 60.6358 91.9763 61.5075 91.8562C61.8726 91.4055 62.2649 90.895 62.6795 90.3235C64.4448 87.8905 65.9945 85.2111 67.1395 82.9808C67.6819 81.9243 68.0626 81.1075 68.2678 80.6524C68.3685 80.429 68.4227 80.3012 68.4294 80.2854C70.7731 74.5624 75.1808 64.1332 81.3744 49.6263L81.3923 49.5833C91.9407 24.9322 119.836 6.99252 150.999 14.454C151.1 14.4783 151.202 14.5026 151.303 14.5274C160.269 16.7265 168.001 20.6441 174.418 25.7523ZM228.673 163.736C226.954 163.328 225.179 164.296 224.46 166.047C218.159 181.398 213.538 192.375 211.107 197.788C206.366 208.342 191.95 240.46 165.029 243.283C163.694 243.427 143.377 246.577 138.332 240.748C133.559 235.231 133.551 223.758 138.316 206.64C140.115 200.171 143.241 187.651 145.536 178.28C145.975 176.489 145.064 174.898 143.369 174.482C141.666 174.074 139.907 175.017 139.171 176.736C132.911 191.4 128.649 201.491 126.507 206.728C126.119 207.673 109.465 248.656 80.453 252.166C77.0958 252.573 67.0418 254.005 66.9888 254.013L64.3583 266.685L66.8287 266.022C66.9978 265.979 82.7743 261.867 90.9752 270.228L90.983 270.219C96.8437 276.2 97.6193 287.13 93.2778 302.713C91.4308 309.357 87.9371 322.798 85.3385 332.896L85.2987 333.065C84.9322 334.803 85.84 336.331 87.5053 336.726C87.8889 336.822 88.2806 336.838 88.6562 336.806C89.8854 336.678 91.0092 335.89 91.6061 334.672L91.7185 334.423C96.108 323.717 101.993 309.525 105.063 302.681C109.805 292.127 124.22 260.009 151.141 257.187C152.479 257.042 172.793 253.893 177.838 259.721C182.611 265.238 182.619 276.712 177.854 293.83C176.415 299.003 173.984 308.542 170.634 322.19L170.596 322.358C170.252 324.079 171.159 325.585 172.808 325.988C174.511 326.395 176.271 325.444 176.998 323.733C181.284 313.683 186.968 300.331 189.671 293.743C190.055 292.807 206.709 251.815 235.717 248.304C239.083 247.896 249.182 246.457 249.182 246.457L251.812 233.784L249.341 234.448C249.159 234.494 233.393 238.599 225.195 230.242C219.335 224.261 218.559 213.332 222.9 197.749C224.364 192.487 227.034 182.333 230.84 167.566C231.303 165.759 230.392 164.144 228.673 163.736ZM223.084 58.9155C221.365 58.5078 219.59 59.4751 218.871 61.2259C212.57 76.5772 207.949 87.5552 205.518 92.9681C200.777 103.522 186.361 135.639 159.44 138.462C158.105 138.606 137.788 141.756 132.743 135.927C127.97 130.41 127.962 118.937 132.727 101.819C134.526 95.351 137.653 82.8295 139.947 73.4588C140.387 71.668 139.476 70.0768 137.781 69.661C136.078 69.2532 134.319 70.197 133.583 71.916L129.264 82.0516C125.324 91.3212 122.525 97.9789 120.918 101.907C120.535 102.842 103.88 143.835 74.864 147.345C71.4978 147.753 61.3998 149.192 61.3998 149.192L58.7692 161.865L61.2397 161.201C61.3996 161.161 77.1828 157.044 85.3862 165.407L85.394 165.399C91.2546 171.379 92.0302 182.309 87.6888 197.892C85.8418 204.536 82.348 217.977 79.7495 228.075C79.2858 229.882 80.1972 231.497 81.9163 231.905C82.2999 232.001 82.6915 232.017 83.0672 231.985C84.3784 231.849 85.5698 230.962 86.1295 229.602C90.519 218.896 96.404 204.704 99.4743 197.86C104.216 187.306 118.632 155.189 145.552 152.366C146.887 152.223 167.203 149.072 172.249 154.901C177.022 160.418 177.03 171.891 172.265 189.01C170.826 194.183 168.395 203.721 165.045 217.369C164.605 219.16 165.517 220.751 167.219 221.167C168.922 221.575 170.682 220.623 171.409 218.912C175.695 208.862 181.38 195.51 184.083 188.922C184.469 187.98 201.123 146.993 230.128 143.483C233.495 143.075 243.593 141.637 243.593 141.637L246.223 128.963L243.753 129.627C243.593 129.667 227.81 133.785 219.606 125.422C213.746 119.441 212.97 108.511 217.311 92.9283C218.409 88.9825 220.185 82.284 222.611 72.9513L225.251 62.7454C225.714 60.9384 224.803 59.3233 223.084 58.9155ZM67.9718 90.9973C67.9938 90.9947 68.0158 90.9922 68.0374 90.9895L68.0468 90.988C68.0218 90.991 67.9967 90.9943 67.9718 90.9973Z" fill="url(#paint0_linear_20_855)"/>
<path d="M174.418 25.7523L173.172 27.317C173.591 27.6505 174.126 27.8021 174.658 27.7378C175.189 27.6735 175.673 27.3987 176 26.9749L174.418 25.7523ZM235.45 3.51023L235.9 1.56148L235.888 1.55892L235.45 3.51023ZM236.187 3.68045L236.66 1.73719C236.652 1.73533 236.644 1.73351 236.637 1.73173L236.187 3.68045ZM237.017 3.88267L237.504 1.94288C237.5 1.94171 237.495 1.94055 237.49 1.93942L237.017 3.88267ZM280.237 76.8569L282.174 77.3541L282.174 77.3541L280.237 76.8569ZM280.223 76.9124L282.159 77.4115L282.159 77.4115L280.223 76.9124ZM278.786 82.4631L276.85 81.9622C276.641 82.7699 276.955 83.6226 277.638 84.1013L278.786 82.4631ZM285.189 87.6805L286.561 86.226L286.561 86.226L285.189 87.6805ZM301.806 140.501L303.764 140.908L303.764 140.908L301.806 140.501ZM299.175 153.174L297.217 152.767L297.217 152.767L299.175 153.174ZM286.48 178.825L284.969 177.514C284.743 177.775 284.589 178.089 284.52 178.426L286.48 178.825ZM285.826 181.677L287.763 182.174L287.763 182.174L285.826 181.677ZM285.812 181.733L287.748 182.232L287.748 182.232L285.812 181.733ZM284.375 187.283L282.439 186.782C282.23 187.59 282.544 188.443 283.228 188.922L284.375 187.283ZM290.777 192.502L292.15 191.047L292.15 191.047L290.777 192.502ZM307.395 245.322L309.353 245.728L309.353 245.728L307.395 245.322ZM304.764 257.994L302.806 257.588L302.806 257.588L304.764 257.994ZM257.191 302.657V304.657C257.286 304.657 257.38 304.65 257.473 304.637L257.191 302.657ZM255.537 291.051L257.517 290.769C257.361 289.675 256.348 288.915 255.254 289.071C254.161 289.227 253.401 290.24 253.557 291.333L255.537 291.051ZM257.187 302.657V300.657C257.007 300.657 256.828 300.681 256.655 300.729L257.187 302.657ZM257.18 302.659L257.462 304.639L257.462 304.639L257.18 302.659ZM257.155 302.662L257.437 304.642L257.437 304.642L257.155 302.662ZM257.064 302.675L257.346 304.655L257.346 304.655L257.064 302.675ZM256.723 302.723L257.004 304.704L257.004 304.704L256.723 302.723ZM255.498 302.897L255.778 304.877L255.498 302.897ZM251.553 303.451L251.829 305.432L251.829 305.432L251.553 303.451ZM249.081 303.791L248.808 301.809C248.305 301.879 247.846 302.137 247.527 302.532L249.081 303.791ZM247.91 305.323L246.292 304.148L246.292 304.148L247.91 305.323ZM243.45 312.667L241.671 311.754L241.671 311.754L243.45 312.667ZM242.321 314.996L240.498 314.174L240.498 314.174L242.321 314.996ZM242.16 315.363L240.317 314.585C239.888 315.601 240.363 316.773 241.379 317.204C242.395 317.635 243.567 317.162 244 316.147L242.16 315.363ZM242.181 315.313L244.028 316.08L244.028 316.08L242.181 315.313ZM242.191 315.289L240.791 316.717C241.266 317.183 241.942 317.382 242.594 317.248C243.246 317.114 243.789 316.664 244.041 316.048L242.191 315.289ZM242.19 315.288L243.59 313.86C243.115 313.394 242.439 313.195 241.787 313.329C241.135 313.463 240.593 313.913 240.34 314.529L242.19 315.288ZM229.217 346L227.789 347.4C228.257 347.877 228.931 348.089 229.588 347.965C230.244 347.841 230.795 347.398 231.057 346.784L229.217 346ZM229.216 345.999L230.644 344.598C230.177 344.122 229.502 343.91 228.846 344.033C228.19 344.157 227.639 344.6 227.377 345.214L229.216 345.999ZM159.59 381.195L159.124 383.14L159.124 383.14L159.59 381.195ZM159.345 381.136L158.871 383.079L158.871 383.079L159.345 381.136ZM136.198 369.92L137.443 368.354C137.023 368.02 136.487 367.869 135.955 367.935C135.422 368 134.939 368.276 134.612 368.701L136.198 369.92ZM94.5091 393.271L94.7153 395.261L94.7153 395.261L94.5091 393.271ZM93.4699 393.369L93.6395 395.362L93.6395 395.362L93.4699 393.369ZM73.7365 391.799L74.2216 389.858L74.2185 389.858L73.7365 391.799ZM30.3525 318.785L32.2898 319.282C32.2917 319.274 32.2936 319.267 32.2954 319.259L30.3525 318.785ZM30.3611 318.749L28.4242 318.251C28.4222 318.259 28.4202 318.267 28.4183 318.275L30.3611 318.749ZM31.7978 313.188L33.7341 313.689C33.943 312.881 33.6285 312.028 32.9451 311.55L31.7978 313.188ZM25.3928 307.969L24.02 309.423L24.0201 309.423L25.3928 307.969ZM8.77492 255.148L6.81667 254.742L6.81666 254.742L8.77492 255.148ZM11.4055 242.476L9.45124 242.05C9.44986 242.056 9.44852 242.063 9.44721 242.069L11.4055 242.476ZM11.6436 241.382L9.69368 240.937C9.69222 240.943 9.69078 240.95 9.68938 240.956L11.6436 241.382ZM24.1092 216.814L25.6197 218.125C25.8456 217.865 26.0004 217.551 26.0691 217.213L24.1092 216.814ZM24.7635 213.964L22.8283 213.459L22.8263 213.467L24.7635 213.964ZM24.7729 213.928L26.7081 214.433L26.7098 214.427L24.7729 213.928ZM26.2088 208.367L28.1451 208.867C28.354 208.06 28.0395 207.207 27.3561 206.729L26.2088 208.367ZM19.8038 203.148L18.431 204.602L18.431 204.602L19.8038 203.148ZM3.1859 150.328L1.22764 149.921L1.22764 149.921L3.1859 150.328ZM5.81644 137.654L3.86222 137.229C3.86084 137.235 3.8595 137.242 3.85818 137.248L5.81644 137.654ZM6.05459 136.561L4.10467 136.116C4.1032 136.122 4.10177 136.129 4.10036 136.135L6.05459 136.561ZM53.3903 92.9923V90.9923C53.2958 90.9923 53.2015 90.999 53.1081 91.0123L53.3903 92.9923ZM55.0448 104.597L53.0648 104.88C53.2207 105.973 54.2335 106.733 55.327 106.577C56.4205 106.422 57.1806 105.409 57.0248 104.315L55.0448 104.597ZM53.3918 92.9923V94.9923C53.7016 94.9923 54.0072 94.9203 54.2845 94.782L53.3918 92.9923ZM53.3934 92.9915L53.2155 90.9995C52.9667 91.0217 52.7242 91.0903 52.5007 91.2018L53.3934 92.9915ZM53.4004 92.9907L53.1183 91.0107L53.1183 91.0107L53.4004 92.9907ZM53.4254 92.9868L53.1434 91.0068L53.1434 91.0068L53.4254 92.9868ZM53.5175 92.9743L53.2358 90.9943L53.2358 90.9943L53.5175 92.9743ZM53.858 92.9259L53.5767 90.9458L53.5767 90.9458L53.858 92.9259ZM55.083 92.7518L54.803 90.7715L54.803 90.7715L55.083 92.7518ZM59.0285 92.1982L58.7522 90.2174L59.0285 92.1982ZM61.5075 91.8562L61.7805 93.8375C62.2838 93.7682 62.7418 93.5099 63.0616 93.1151L61.5075 91.8562ZM62.6795 90.3235L64.2983 91.498L64.2983 91.498L62.6795 90.3235ZM67.1395 82.9808L68.9187 83.8942L68.9187 83.8942L67.1395 82.9808ZM68.2678 80.6524L70.091 81.4744L70.091 81.4744L68.2678 80.6524ZM68.4294 80.2854L70.2694 81.0692C70.2731 81.0606 70.2767 81.052 70.2802 81.0434L68.4294 80.2854ZM81.3744 49.6263L83.2138 50.4116C83.2157 50.407 83.2176 50.4025 83.2195 50.398L81.3744 49.6263ZM81.3923 49.5833L79.5536 48.7965C79.5515 48.8015 79.5493 48.8066 79.5472 48.8116L81.3923 49.5833ZM150.999 14.454L151.465 12.509L151.465 12.509L150.999 14.454ZM151.303 14.5274L151.78 12.585L151.78 12.585L151.303 14.5274ZM228.673 163.736L229.135 161.79L229.135 161.79L228.673 163.736ZM224.46 166.047L222.61 165.287L222.609 165.288L224.46 166.047ZM211.107 197.788L212.931 198.608L212.932 198.608L211.107 197.788ZM165.029 243.283L164.821 241.294L164.815 241.294L165.029 243.283ZM138.332 240.748L136.819 242.057L136.82 242.057L138.332 240.748ZM138.316 206.64L140.243 207.176L140.243 207.175L138.316 206.64ZM145.536 178.28L143.593 177.803L143.593 177.804L145.536 178.28ZM143.369 174.482L143.845 172.54L143.834 172.537L143.369 174.482ZM139.171 176.736L137.333 175.949L137.332 175.951L139.171 176.736ZM126.507 206.728L128.357 207.487L128.358 207.485L126.507 206.728ZM80.453 252.166L80.2128 250.181L80.2125 250.181L80.453 252.166ZM66.9888 254.013L66.7066 252.033C65.8722 252.152 65.2018 252.781 65.0305 253.606L66.9888 254.013ZM64.3583 266.685L62.4 266.279C62.2589 266.959 62.4805 267.663 62.9855 268.14C63.4905 268.616 64.2065 268.797 64.8772 268.617L64.3583 266.685ZM66.8287 266.022L66.3426 264.082C66.3316 264.084 66.3207 264.087 66.3098 264.09L66.8287 266.022ZM90.9752 270.228L89.5474 271.628C89.9329 272.021 90.4634 272.238 91.0138 272.227C91.5643 272.217 92.086 271.98 92.456 271.572L90.9752 270.228ZM90.983 270.219L92.4115 268.819C92.026 268.426 91.4954 268.209 90.9448 268.22C90.3942 268.23 89.8723 268.467 89.5022 268.875L90.983 270.219ZM93.2778 302.713L91.3512 302.176L91.3509 302.178L93.2778 302.713ZM85.3385 332.896L83.4016 332.398C83.3983 332.411 83.3951 332.424 83.3921 332.437L85.3385 332.896ZM85.2987 333.065L83.3522 332.605C83.3486 332.621 83.3451 332.636 83.3418 332.652L85.2987 333.065ZM87.5053 336.726L87.9901 334.786C87.9824 334.784 87.9746 334.782 87.9669 334.78L87.5053 336.726ZM88.6562 336.806L88.8258 338.798C88.838 338.797 88.8502 338.796 88.8624 338.795L88.6562 336.806ZM91.6061 334.672L93.402 335.553C93.4113 335.534 93.4203 335.515 93.429 335.495L91.6061 334.672ZM91.7185 334.423L93.5414 335.246C93.551 335.225 93.5602 335.204 93.569 335.182L91.7185 334.423ZM105.063 302.681L103.239 301.862L103.238 301.863L105.063 302.681ZM151.141 257.187L151.35 259.176L151.356 259.175L151.141 257.187ZM177.838 259.721L179.35 258.413L179.35 258.412L177.838 259.721ZM177.854 293.83L175.927 293.294L175.927 293.294L177.854 293.83ZM170.634 322.19L168.692 321.713C168.688 321.727 168.685 321.74 168.682 321.754L170.634 322.19ZM170.596 322.358L168.644 321.922C168.641 321.936 168.638 321.951 168.635 321.965L170.596 322.358ZM172.808 325.988L172.334 327.93L172.343 327.933L172.808 325.988ZM176.998 323.733L175.159 322.949L175.158 322.951L176.998 323.733ZM189.671 293.743L187.82 292.983L187.82 292.984L189.671 293.743ZM235.717 248.304L235.957 250.29L235.957 250.29L235.717 248.304ZM249.182 246.457L249.464 248.437C250.298 248.318 250.969 247.689 251.14 246.863L249.182 246.457ZM251.812 233.784L253.77 234.191C253.912 233.511 253.69 232.807 253.185 232.33C252.68 231.853 251.964 231.673 251.293 231.853L251.812 233.784ZM249.341 234.448L249.828 236.388C249.839 236.385 249.849 236.382 249.86 236.38L249.341 234.448ZM225.195 230.242L223.767 231.642L223.767 231.642L225.195 230.242ZM222.9 197.749L224.827 198.285L224.827 198.284L222.9 197.749ZM230.84 167.566L232.776 168.065L232.777 168.063L230.84 167.566ZM223.084 58.9155L223.546 56.9695L223.545 56.9695L223.084 58.9155ZM218.871 61.2259L217.021 60.4657L217.02 60.4666L218.871 61.2259ZM205.518 92.9681L207.342 93.7877L207.343 93.7874L205.518 92.9681ZM159.44 138.462L159.232 136.473L159.226 136.473L159.44 138.462ZM132.743 135.927L131.23 137.236L131.231 137.236L132.743 135.927ZM132.727 101.819L134.654 102.356L134.654 102.355L132.727 101.819ZM139.947 73.4588L138.005 72.9821L138.005 72.9831L139.947 73.4588ZM137.781 69.661L138.257 67.7186L138.246 67.716L137.781 69.661ZM133.583 71.916L131.744 71.1291L131.743 71.132L133.583 71.916ZM129.264 82.0516L127.424 81.2677L127.424 81.2693L129.264 82.0516ZM120.918 101.907L122.769 102.666L122.769 102.664L120.918 101.907ZM74.864 147.345L74.6238 145.36L74.6235 145.36L74.864 147.345ZM61.3998 149.192L61.1175 147.212C60.2831 147.331 59.6128 147.961 59.4415 148.786L61.3998 149.192ZM58.7692 161.865L56.811 161.458C56.6698 162.138 56.8915 162.843 57.3965 163.319C57.9014 163.796 58.6175 163.977 59.2881 163.796L58.7692 161.865ZM61.2397 161.201L60.7546 159.261C60.7433 159.264 60.7321 159.267 60.7208 159.27L61.2397 161.201ZM85.3862 165.407L83.9584 166.807C84.3321 167.188 84.8424 167.404 85.376 167.407C85.9096 167.409 86.4222 167.199 86.7997 166.822L85.3862 165.407ZM85.394 165.399L86.8224 163.999C86.4489 163.618 85.9384 163.402 85.4046 163.399C84.8708 163.396 84.3581 163.607 83.9805 163.984L85.394 165.399ZM87.6888 197.892L85.7621 197.355L85.7618 197.357L87.6888 197.892ZM79.7495 228.075L77.8126 227.577L77.8123 227.578L79.7495 228.075ZM81.9163 231.905L82.4013 229.965C82.3935 229.963 82.3857 229.961 82.3779 229.959L81.9163 231.905ZM83.0672 231.985L83.2366 233.978C83.2489 233.977 83.2612 233.976 83.2734 233.975L83.0672 231.985ZM86.1295 229.602L87.9789 230.364L87.98 230.361L86.1295 229.602ZM99.4743 197.86L97.6499 197.041L97.6495 197.042L99.4743 197.86ZM145.552 152.366L145.761 154.356L145.766 154.355L145.552 152.366ZM172.249 154.901L173.761 153.592L173.761 153.592L172.249 154.901ZM172.265 189.01L170.338 188.473L170.338 188.474L172.265 189.01ZM165.045 217.369L166.987 217.846L166.987 217.846L165.045 217.369ZM167.219 221.167L166.745 223.11L166.754 223.112L167.219 221.167ZM171.409 218.912L169.57 218.128L169.569 218.13L171.409 218.912ZM184.083 188.922L182.232 188.162L182.232 188.162L184.083 188.922ZM230.128 143.483L230.369 145.469L230.369 145.469L230.128 143.483ZM243.593 141.637L243.875 143.617C244.709 143.498 245.38 142.868 245.551 142.043L243.593 141.637ZM246.223 128.963L248.181 129.37C248.322 128.69 248.101 127.985 247.596 127.509C247.091 127.032 246.375 126.852 245.704 127.032L246.223 128.963ZM243.753 129.627L244.238 131.567C244.249 131.564 244.26 131.562 244.272 131.559L243.753 129.627ZM219.606 125.422L218.178 126.821L218.178 126.822L219.606 125.422ZM217.311 92.9283L219.238 93.465L219.238 93.4642L217.311 92.9283ZM222.611 72.9513L224.546 73.4544L224.547 73.4522L222.611 72.9513ZM225.251 62.7454L227.187 63.2462L227.188 63.2426L225.251 62.7454ZM67.9718 90.9973L67.7256 89.0126C66.6303 89.1485 65.8522 90.1459 65.9868 91.2413C66.1214 92.3367 67.1178 93.116 68.2134 92.9827L67.9718 90.9973ZM68.0374 90.9895L68.2779 92.975C68.3071 92.9715 68.3362 92.9673 68.3652 92.9625L68.0374 90.9895ZM68.0468 90.988L68.3745 92.9609C69.4472 92.7827 70.1809 91.7802 70.0265 90.7039C69.8721 89.6276 68.8861 88.8719 67.8066 89.0025L68.0468 90.988ZM174.418 25.7523L176 26.9749C188.896 10.2811 210.891 0.0393709 235.011 5.46153L235.45 3.51023L235.888 1.55892C210.084 -4.24175 186.571 6.74778 172.835 24.5297L174.418 25.7523ZM235.45 3.51023L235 5.45894L235.737 5.62916L236.187 3.68045L236.637 1.73173L235.9 1.56152L235.45 3.51023ZM236.187 3.68045L235.714 5.6237L236.544 5.82593L237.017 3.88267L237.49 1.93942L236.66 1.73719L236.187 3.68045ZM237.017 3.88267L236.53 5.82247C270.344 14.3118 285.574 48.013 278.299 76.3598L280.237 76.8569L282.174 77.3541C289.929 47.1339 273.733 11.0386 237.504 1.94288L237.017 3.88267ZM280.237 76.8569L278.299 76.3598C278.271 76.471 278.307 76.3307 278.286 76.4132L280.223 76.9124L282.159 77.4115C282.163 77.3956 282.167 77.3808 282.169 77.372C282.172 77.3615 282.173 77.3574 282.174 77.3541L280.237 76.8569ZM280.223 76.9124L278.286 76.4132C277.791 78.3324 277.311 80.178 276.85 81.9622L278.786 82.4631L280.722 82.9641C281.182 81.1872 281.664 79.3323 282.159 77.4115L280.223 76.9124ZM278.786 82.4631L277.638 84.1013C279.799 85.6147 281.865 87.294 283.816 89.1349L285.189 87.6805L286.561 86.226C284.468 84.2507 282.252 82.4488 279.933 80.825L278.786 82.4631ZM285.189 87.6805L283.816 89.1349C297.644 102.187 303.712 121.477 299.847 140.095L301.806 140.501L303.764 140.908C307.911 120.93 301.399 100.231 286.561 86.226L285.189 87.6805ZM301.806 140.501L299.847 140.095L297.217 152.767L299.175 153.174L301.133 153.58L303.764 140.908L301.806 140.501ZM299.175 153.174L297.217 152.767C295.27 162.147 290.968 170.599 284.969 177.514L286.48 178.825L287.991 180.135C294.427 172.716 299.044 163.644 301.133 153.58L299.175 153.174ZM286.48 178.825L284.52 178.426C284.332 179.351 284.122 180.269 283.888 181.18L285.826 181.677L287.763 182.174C288.014 181.195 288.239 180.211 288.44 179.223L286.48 178.825ZM285.826 181.677L283.888 181.18C283.859 181.294 283.897 181.149 283.875 181.234L285.812 181.733L287.748 182.232C287.752 182.216 287.756 182.201 287.758 182.192C287.761 182.182 287.762 182.178 287.763 182.174L285.826 181.677ZM285.812 181.733L283.875 181.233C283.38 183.153 282.9 184.998 282.439 186.782L284.375 187.283L286.311 187.784C286.771 186.008 287.253 184.153 287.748 182.232L285.812 181.733ZM284.375 187.283L283.228 188.922C285.388 190.435 287.453 192.115 289.404 193.956L290.777 192.502L292.15 191.047C290.057 189.072 287.841 187.269 285.522 185.645L284.375 187.283ZM290.777 192.502L289.404 193.956C303.232 207.008 309.301 226.297 305.436 244.915L307.395 245.322L309.353 245.728C313.5 225.75 306.987 205.052 292.15 191.047L290.777 192.502ZM307.395 245.322L305.436 244.915L302.806 257.588L304.764 257.994L306.722 258.401L309.353 245.728L307.395 245.322ZM304.764 257.994L302.806 257.588C298.115 280.187 279.759 297.42 256.909 300.677L257.191 302.657L257.473 304.637C281.992 301.142 301.689 282.651 306.722 258.401L304.764 257.994ZM257.191 302.657L259.171 302.375L257.517 290.769L255.537 291.051L253.557 291.333L255.211 302.939L257.191 302.657ZM255.537 291.051L253.557 291.333C254.38 297.109 254.793 300.011 255.001 301.468C255.105 302.197 255.158 302.565 255.184 302.751C255.197 302.844 255.204 302.891 255.208 302.916C255.209 302.928 255.21 302.934 255.211 302.938C255.211 302.94 255.212 302.942 255.212 302.943C255.212 302.944 255.212 302.945 255.212 302.947C255.212 302.948 255.213 302.949 255.213 302.951C255.213 302.951 255.213 302.953 255.213 302.954C255.213 302.955 255.214 302.956 255.214 302.957C255.214 302.958 255.214 302.96 257.191 302.657C259.168 302.354 259.168 302.356 259.169 302.357C259.169 302.358 259.169 302.359 259.169 302.36C259.169 302.361 259.169 302.363 259.169 302.363C259.17 302.365 259.17 302.366 259.17 302.367C259.17 302.368 259.17 302.369 259.17 302.37C259.17 302.37 259.17 302.37 259.17 302.369C259.17 302.366 259.169 302.361 259.167 302.349C259.164 302.325 259.157 302.278 259.144 302.185C259.118 302 259.065 301.632 258.961 300.904C258.753 299.446 258.34 296.545 257.517 290.769L255.537 291.051ZM257.191 302.657V300.657H257.187V302.657V304.657H257.191V302.657ZM257.187 302.657C256.655 300.729 256.655 300.729 256.655 300.729C256.655 300.729 256.655 300.729 256.655 300.729C256.655 300.729 256.655 300.729 256.655 300.729C256.656 300.729 256.656 300.729 256.656 300.729C256.656 300.729 256.657 300.729 256.657 300.728C256.658 300.728 256.659 300.728 256.66 300.728C256.662 300.727 256.664 300.727 256.666 300.726C256.67 300.725 256.674 300.724 256.679 300.723C256.688 300.72 256.701 300.717 256.715 300.714C256.728 300.71 256.802 300.692 256.898 300.679L257.18 302.659L257.462 304.639C257.561 304.624 257.638 304.606 257.655 304.602C257.67 304.598 257.684 304.594 257.694 304.592C257.699 304.59 257.704 304.589 257.708 304.588C257.71 304.587 257.712 304.587 257.714 304.586C257.715 304.586 257.716 304.586 257.717 304.586C257.718 304.585 257.718 304.585 257.718 304.585C257.719 304.585 257.719 304.585 257.719 304.585C257.719 304.585 257.719 304.585 257.719 304.585C257.719 304.585 257.72 304.585 257.72 304.585C257.72 304.585 257.72 304.585 257.187 302.657ZM257.18 302.659L256.898 300.679C256.908 300.677 256.917 300.676 256.923 300.675C256.929 300.674 256.933 300.674 256.935 300.674C256.938 300.673 256.939 300.673 256.939 300.673C256.939 300.673 256.939 300.673 256.938 300.673C256.938 300.673 256.937 300.673 256.936 300.674C256.927 300.675 256.903 300.677 256.873 300.682L257.155 302.662L257.437 304.642C257.427 304.643 257.419 304.644 257.413 304.645C257.41 304.645 257.408 304.646 257.406 304.646C257.404 304.646 257.403 304.646 257.403 304.646C257.403 304.646 257.403 304.646 257.403 304.646C257.403 304.646 257.404 304.646 257.404 304.646C257.404 304.646 257.405 304.646 257.406 304.646C257.407 304.646 257.411 304.645 257.415 304.645C257.419 304.644 257.425 304.644 257.433 304.643C257.44 304.642 257.45 304.64 257.462 304.639L257.18 302.659ZM257.155 302.662L256.873 300.682C256.857 300.684 256.838 300.687 256.826 300.689C256.811 300.691 256.797 300.693 256.782 300.695L257.064 302.675L257.346 304.655C257.37 304.652 257.391 304.649 257.407 304.646C257.425 304.643 257.432 304.642 257.437 304.642L257.155 302.662ZM257.064 302.675L256.782 300.695C256.702 300.706 256.591 300.722 256.441 300.743L256.723 302.723L257.004 304.704C257.147 304.683 257.267 304.666 257.346 304.655L257.064 302.675ZM256.723 302.723L256.441 300.743C256.149 300.785 255.731 300.844 255.218 300.916L255.498 302.897L255.778 304.877C256.291 304.805 256.71 304.745 257.004 304.704L256.723 302.723ZM255.498 302.897L255.218 300.916C254.196 301.061 252.793 301.259 251.277 301.47L251.553 303.451L251.829 305.432C253.349 305.22 254.755 305.022 255.778 304.877L255.498 302.897ZM251.553 303.451L251.277 301.47C250.517 301.576 249.686 301.689 248.808 301.809L249.081 303.791L249.354 305.772C250.214 305.653 251.068 305.538 251.829 305.432L251.553 303.451ZM249.081 303.791L247.527 302.532C247.137 303.013 246.724 303.552 246.292 304.148L247.91 305.323L249.529 306.497C249.925 305.952 250.295 305.47 250.635 305.049L249.081 303.791ZM247.91 305.323L246.292 304.148C244.45 306.686 242.849 309.46 241.671 311.754L243.45 312.667L245.23 313.58C246.342 311.413 247.84 308.826 249.529 306.497L247.91 305.323ZM243.45 312.667L241.671 311.754C241.112 312.843 240.716 313.691 240.498 314.174L242.321 314.996L244.145 315.818C244.338 315.39 244.704 314.604 245.23 313.58L243.45 312.667ZM242.321 314.996L240.498 314.174C240.444 314.294 240.402 314.389 240.372 314.458C240.357 314.492 240.345 314.52 240.336 314.541C240.332 314.552 240.328 314.56 240.325 314.567C240.322 314.573 240.32 314.579 240.32 314.579L242.16 315.363L244 316.147C244.003 316.139 244.051 316.025 244.145 315.818L242.321 314.996ZM242.16 315.363L244.002 316.141C244.001 316.144 244 316.146 244 316.146C244.001 316.145 244.001 316.145 244.002 316.143C244.003 316.139 244.005 316.135 244.008 316.128C244.013 316.116 244.02 316.1 244.028 316.08L242.181 315.313L240.334 314.546C240.33 314.555 240.328 314.561 240.326 314.565C240.325 314.567 240.324 314.569 240.323 314.571C240.323 314.572 240.322 314.574 240.321 314.576C240.321 314.577 240.319 314.581 240.317 314.585L242.16 315.363ZM242.181 315.313L244.028 316.08C244.037 316.058 244.051 316.025 244.055 316.014C244.057 316.009 244.056 316.011 244.055 316.015C244.055 316.015 244.053 316.019 244.051 316.024C244.051 316.025 244.047 316.033 244.043 316.044C244.042 316.045 244.033 316.066 244.021 316.091C244.012 316.11 243.978 316.178 243.951 316.227C243.65 316.632 241.061 316.883 240.251 314.839C240.274 314.739 240.312 314.612 240.321 314.584C240.326 314.571 240.334 314.55 240.336 314.542C240.341 314.529 240.346 314.519 240.347 314.516C240.35 314.508 240.352 314.502 240.353 314.501C240.354 314.497 240.355 314.494 240.356 314.493C240.357 314.491 240.358 314.489 240.357 314.49C240.355 314.495 240.35 314.506 240.341 314.53L242.191 315.289L244.041 316.048C244.051 316.025 244.056 316.012 244.059 316.005C244.059 316.005 244.061 316.001 244.062 315.997C244.062 315.997 244.064 315.993 244.065 315.989C244.066 315.988 244.068 315.982 244.071 315.974C244.072 315.971 244.077 315.961 244.081 315.948C244.084 315.94 244.092 315.919 244.097 315.906C244.106 315.878 244.144 315.751 244.167 315.652C243.357 313.608 240.768 313.859 240.467 314.263C240.44 314.312 240.406 314.38 240.397 314.399C240.385 314.425 240.376 314.445 240.375 314.446C240.371 314.457 240.367 314.465 240.367 314.466C240.365 314.471 240.363 314.475 240.363 314.476C240.361 314.481 240.358 314.488 240.358 314.489C240.352 314.503 240.341 314.529 240.334 314.546L242.181 315.313ZM242.191 315.289L243.591 313.861L243.59 313.86L242.19 315.288L240.79 316.716L240.791 316.717L242.191 315.289ZM242.19 315.288L240.34 314.529C237.458 321.555 231.592 335.332 227.377 345.215L229.217 346L231.057 346.784C235.266 336.912 241.145 323.105 244.041 316.047L242.19 315.288ZM229.217 346L230.645 344.599L230.644 344.598L229.216 345.999L227.788 347.399L227.789 347.4L229.217 346ZM229.216 345.999L227.377 345.214C217.208 369.063 190.231 386.475 160.056 379.25L159.59 381.195L159.124 383.14C191.419 390.873 220.216 372.208 231.056 346.783L229.216 345.999ZM159.59 381.195L160.056 379.25C159.978 379.232 159.899 379.213 159.819 379.193L159.345 381.136L158.871 383.079C158.954 383.099 159.039 383.12 159.124 383.14L159.59 381.195ZM159.345 381.136L159.819 379.193C151.127 377.071 143.645 373.285 137.443 368.354L136.198 369.92L134.953 371.485C141.609 376.777 149.617 380.82 158.871 383.079L159.345 381.136ZM136.198 369.92L134.612 368.701C125.269 380.863 111.103 389.54 94.3029 391.282L94.5091 393.271L94.7153 395.261C112.674 393.399 127.812 384.118 137.784 371.138L136.198 369.92ZM94.5091 393.271L94.3029 391.282C93.9709 391.316 93.6366 391.347 93.3003 391.376L93.4699 393.369L93.6395 395.362C93.9964 395.331 94.3554 395.298 94.7153 395.261L94.5091 393.271ZM93.4699 393.369L93.3003 391.376C88.3042 391.801 81.6794 391.723 74.2216 389.858L73.7365 391.799L73.2515 393.739C81.2264 395.733 88.3065 395.816 93.6395 395.362L93.4699 393.369ZM73.7365 391.799L74.2185 389.858C40.2926 381.434 25.0036 347.673 32.2898 319.282L30.3525 318.785L28.4153 318.287C20.6476 348.555 36.9068 384.715 73.2546 393.74L73.7365 391.799ZM30.3525 318.785L32.2954 319.259L32.304 319.224L30.3611 318.749L28.4183 318.275L28.4097 318.31L30.3525 318.785ZM30.3611 318.749L32.298 319.248C32.7478 317.5 33.2324 315.629 33.7341 313.689L31.7978 313.188L29.8615 312.687C29.3603 314.625 28.8748 316.5 28.4242 318.251L30.3611 318.749ZM31.7978 313.188L32.9451 311.55C30.7834 310.036 28.7168 308.356 26.7656 306.514L25.3928 307.969L24.0201 309.423C26.1137 311.399 28.3312 313.202 30.6505 314.826L31.7978 313.188ZM25.3928 307.969L26.7656 306.514C12.9377 293.463 6.86866 274.172 10.7332 255.555L8.77492 255.148L6.81666 254.742C2.66989 274.719 9.18215 295.418 24.02 309.423L25.3928 307.969ZM8.77492 255.148L10.7332 255.555L13.3637 242.882L11.4055 242.476L9.44721 242.069L6.81667 254.742L8.77492 255.148ZM11.4055 242.476L13.3597 242.901L13.5978 241.807L11.6436 241.382L9.68938 240.956L9.45124 242.05L11.4055 242.476ZM11.6436 241.382L13.5935 241.826C15.6376 232.864 19.8423 224.782 25.6197 218.125L24.1092 216.814L22.5987 215.503C16.4 222.646 11.8872 231.319 9.69368 240.937L11.6436 241.382ZM24.1092 216.814L26.0691 217.213C26.2567 216.29 26.467 215.372 26.7007 214.461L24.7635 213.964L22.8263 213.467C22.5753 214.445 22.35 215.429 22.1493 216.416L24.1092 216.814ZM24.7635 213.964L26.6987 214.469L26.7081 214.433L24.7729 213.928L22.8377 213.424L22.8283 213.459L24.7635 213.964ZM24.7729 213.928L26.7098 214.427C27.1596 212.679 27.6436 210.807 28.1451 208.867L26.2088 208.367L24.2725 207.866C23.771 209.805 23.2865 211.679 22.836 213.43L24.7729 213.928ZM26.2088 208.367L27.3561 206.729C25.1944 205.215 23.1277 203.535 21.1766 201.693L19.8038 203.148L18.431 204.602C20.5247 206.578 22.7423 208.381 25.0615 210.005L26.2088 208.367ZM19.8038 203.148L21.1766 201.693C7.34877 188.642 1.27977 169.352 5.14416 150.734L3.1859 150.328L1.22764 149.921C-2.919 169.899 3.59327 190.597 18.431 204.602L19.8038 203.148ZM3.1859 150.328L5.14416 150.734L7.7747 138.061L5.81644 137.654L3.85818 137.248L1.22764 149.921L3.1859 150.328ZM5.81644 137.654L7.77067 138.08L8.00882 136.986L6.05459 136.561L4.10036 136.135L3.86222 137.229L5.81644 137.654ZM6.05459 136.561L8.00451 137.005C13.0403 114.926 31.1792 98.178 53.6724 94.9723L53.3903 92.9923L53.1081 91.0123C28.9719 94.4521 9.50845 112.424 4.10467 136.116L6.05459 136.561ZM53.3903 92.9923L51.4103 93.2746L53.0648 104.88L55.0448 104.597L57.0248 104.315L55.3702 92.71L53.3903 92.9923ZM55.0448 104.597L57.0248 104.315C55.4096 92.9815 55.3732 92.7312 55.3756 92.7507L53.3903 92.9923L51.4049 93.2339C51.4091 93.2685 51.4575 93.6013 53.0648 104.88L55.0448 104.597ZM53.3903 92.9923V94.9923H53.3918V92.9923V90.9923H53.3903V92.9923ZM53.3918 92.9923L54.2845 94.782L54.2861 94.7813L53.3934 92.9915L52.5007 91.2018L52.4991 91.2026L53.3918 92.9923ZM53.3934 92.9915C53.5713 94.9836 53.5713 94.9836 53.5713 94.9836C53.5713 94.9836 53.5714 94.9836 53.5714 94.9836C53.5714 94.9836 53.5715 94.9836 53.5715 94.9836C53.5716 94.9836 53.5717 94.9836 53.5718 94.9835C53.572 94.9835 53.5722 94.9835 53.5724 94.9835C53.5728 94.9835 53.5732 94.9834 53.5736 94.9834C53.5745 94.9833 53.5754 94.9832 53.5763 94.9831C53.5782 94.983 53.5803 94.9828 53.5826 94.9826C53.5871 94.9821 53.5931 94.9815 53.6002 94.9808C53.6079 94.98 53.6411 94.9766 53.6825 94.9708L53.4004 92.9907L53.1183 91.0107C53.1568 91.0052 53.1866 91.0023 53.1914 91.0018C53.1971 91.0012 53.2019 91.0007 53.2056 91.0004C53.2074 91.0002 53.2092 91 53.2108 90.9999C53.2117 90.9998 53.2124 90.9997 53.2132 90.9997C53.2136 90.9996 53.214 90.9996 53.2144 90.9996C53.2146 90.9995 53.2147 90.9995 53.2149 90.9995C53.215 90.9995 53.2151 90.9995 53.2152 90.9995C53.2153 90.9995 53.2153 90.9995 53.2153 90.9995C53.2154 90.9995 53.2154 90.9995 53.2154 90.9995C53.2155 90.9995 53.2155 90.9995 53.3934 92.9915ZM53.4004 92.9907L53.6825 94.9708C53.6925 94.9693 53.701 94.968 53.7073 94.9671C53.7136 94.9661 53.7189 94.9653 53.7225 94.9647C53.7261 94.9641 53.7291 94.9636 53.7306 94.9634C53.7314 94.9632 53.7322 94.9631 53.7325 94.9631C53.733 94.963 53.7332 94.9629 53.7332 94.9629C53.734 94.9628 53.7227 94.9647 53.7074 94.9669L53.4254 92.9868L53.1434 91.0068C53.1175 91.0105 53.0966 91.0139 53.089 91.0152C53.088 91.0153 53.0872 91.0155 53.0866 91.0155C53.086 91.0157 53.0858 91.0157 53.0856 91.0157C53.0851 91.0158 53.0863 91.0156 53.0881 91.0153C53.0899 91.015 53.0935 91.0145 53.0981 91.0137C53.1028 91.013 53.1098 91.012 53.1183 91.0107L53.4004 92.9907ZM53.4254 92.9868L53.7074 94.9669C53.7042 94.9673 53.7034 94.9674 53.7079 94.9668C53.7129 94.9661 53.717 94.9656 53.727 94.9643C53.7442 94.962 53.7696 94.9586 53.7993 94.9544L53.5175 92.9743L53.2358 90.9943C53.2258 90.9957 53.2158 90.9971 53.2022 90.9988C53.1967 90.9996 53.1866 91.0009 53.1785 91.002C53.1699 91.0031 53.1573 91.0048 53.1434 91.0068L53.4254 92.9868ZM53.5175 92.9743L53.7993 94.9544C53.8787 94.9431 53.9932 94.9268 54.1392 94.9061L53.858 92.9259L53.5767 90.9458C53.4301 90.9666 53.315 90.983 53.2358 90.9943L53.5175 92.9743ZM53.858 92.9259L54.1392 94.9061C54.4351 94.864 54.8508 94.8046 55.363 94.7321L55.083 92.7518L54.803 90.7715C54.2902 90.844 53.8663 90.9047 53.5767 90.9458L53.858 92.9259ZM55.083 92.7518L55.363 94.7321C56.3847 94.5877 57.7879 94.3906 59.3047 94.1791L59.0285 92.1982L58.7522 90.2174C57.2333 90.4292 55.8276 90.6266 54.803 90.7715L55.083 92.7518ZM59.0285 92.1982L59.3047 94.1791C60.065 94.073 60.9059 93.958 61.7805 93.8375L61.5075 91.8562L61.2346 89.8749C60.3656 89.9947 59.5168 90.1108 58.7522 90.2174L59.0285 92.1982ZM61.5075 91.8562L63.0616 93.1151C63.4504 92.6351 63.8643 92.0963 64.2983 91.498L62.6795 90.3235L61.0607 89.149C60.6655 89.6936 60.2948 90.176 59.9534 90.5973L61.5075 91.8562ZM62.6795 90.3235L64.2983 91.498C66.1394 88.9604 67.7411 86.188 68.9187 83.8942L67.1395 82.9808L65.3603 82.0674C64.2478 84.2342 62.7501 86.8205 61.0607 89.149L62.6795 90.3235ZM67.1395 82.9808L68.9187 83.8942C69.4784 82.804 69.8738 81.9563 70.091 81.4744L68.2678 80.6524L66.4445 79.8304C66.2514 80.2586 65.8853 81.0447 65.3603 82.0674L67.1395 82.9808ZM68.2678 80.6524L70.091 81.4744C70.1449 81.3549 70.1869 81.2597 70.217 81.1907C70.2321 81.1562 70.2441 81.1283 70.2531 81.1074C70.2576 81.0969 70.2613 81.0883 70.2642 81.0815C70.2667 81.0755 70.2694 81.0692 70.2694 81.0692L68.4294 80.2854L66.5894 79.5017C66.586 79.5095 66.5377 79.6237 66.4445 79.8304L68.2678 80.6524ZM68.4294 80.2854L70.2802 81.0434C72.6174 75.3361 77.0196 64.9201 83.2138 50.4116L81.3744 49.6263L79.535 48.841C73.3421 63.3464 68.9287 73.7887 66.5786 79.5275L68.4294 80.2854ZM81.3744 49.6263L83.2195 50.398L83.2375 50.355L81.3923 49.5833L79.5472 48.8116L79.5293 48.8546L81.3744 49.6263ZM81.3923 49.5833L83.2311 50.3701C93.4419 26.508 120.427 9.19053 150.533 16.399L150.999 14.454L151.465 12.509C119.245 4.79452 90.4396 23.3564 79.5536 48.7965L81.3923 49.5833ZM150.999 14.454L150.533 16.399C150.638 16.4241 150.732 16.4466 150.827 16.4698L151.303 14.5274L151.78 12.585C151.672 12.5585 151.563 12.5326 151.465 12.509L150.999 14.454ZM151.303 14.5274L150.827 16.4698C159.512 18.6001 166.982 22.389 173.172 27.317L174.418 25.7523L175.663 24.1876C169.021 18.8991 161.026 14.8528 151.78 12.585L151.303 14.5274ZM228.673 163.736L229.135 161.79C226.367 161.133 223.667 162.715 222.61 165.287L224.46 166.047L226.31 166.807C226.692 165.877 227.54 165.523 228.211 165.682L228.673 163.736ZM224.46 166.047L222.609 165.288C216.308 180.641 211.698 191.59 209.283 196.969L211.107 197.788L212.932 198.608C215.377 193.161 220.011 182.155 226.31 166.806L224.46 166.047ZM211.107 197.788L209.283 196.969C206.913 202.245 202.207 212.713 194.808 222.205C187.394 231.718 177.499 239.964 164.821 241.294L165.029 243.283L165.238 245.272C179.48 243.779 190.254 234.555 197.963 224.664C205.688 214.754 210.56 203.886 212.931 198.608L211.107 197.788ZM165.029 243.283L164.815 241.294C164.045 241.377 158.797 242.18 153.046 242.256C150.173 242.293 147.274 242.145 144.833 241.662C142.314 241.163 140.655 240.376 139.844 239.439L138.332 240.748L136.82 242.057C138.531 244.035 141.304 245.04 144.055 245.585C146.884 246.146 150.094 246.295 153.098 246.255C159.1 246.177 164.679 245.332 165.244 245.271L165.029 243.283ZM138.332 240.748L139.844 239.44C137.908 237.201 136.75 233.52 136.747 228.043C136.744 222.598 137.885 215.645 140.243 207.176L138.316 206.64L136.39 206.103C133.982 214.752 132.744 222.095 132.747 228.046C132.75 233.965 133.983 238.778 136.819 242.057L138.332 240.748ZM138.316 206.64L140.243 207.175C142.052 200.672 145.185 188.121 147.478 178.756L145.536 178.28L143.593 177.804C141.297 187.18 138.179 199.67 136.389 206.104L138.316 206.64ZM145.536 178.28L147.478 178.757C148.158 175.989 146.707 173.241 143.845 172.54L143.369 174.482L142.892 176.424C143.421 176.554 143.793 176.989 143.593 177.803L145.536 178.28ZM143.369 174.482L143.834 172.537C141.094 171.881 138.414 173.422 137.333 175.949L139.171 176.736L141.01 177.523C141.4 176.613 142.238 176.268 142.903 176.427L143.369 174.482ZM139.171 176.736L137.332 175.951C131.072 190.613 126.805 200.717 124.656 205.97L126.507 206.728L128.358 207.485C130.494 202.264 134.749 192.187 141.011 177.522L139.171 176.736ZM126.507 206.728L124.656 205.969C124.483 206.391 120.294 216.7 112.595 227.311C104.841 237.998 93.8588 248.53 80.2128 250.181L80.453 252.166L80.6932 254.152C96.0594 252.293 107.91 240.578 115.833 229.66C123.811 218.665 128.143 208.01 128.357 207.487L126.507 206.728ZM80.453 252.166L80.2125 250.181C76.8286 250.591 66.7467 252.027 66.7066 252.033L66.9888 254.013L67.271 255.993C67.3369 255.983 77.363 254.555 80.6936 254.152L80.453 252.166ZM66.9888 254.013L65.0305 253.606L62.4 266.279L64.3583 266.685L66.3165 267.092L68.947 254.419L66.9888 254.013ZM64.3583 266.685L64.8772 268.617L67.3476 267.953L66.8287 266.022L66.3098 264.09L63.8394 264.754L64.3583 266.685ZM66.8287 266.022L67.3149 267.962C67.3496 267.953 71.145 266.962 75.8853 266.973C80.6904 266.985 86.0113 268.023 89.5474 271.628L90.9752 270.228L92.403 268.827C87.7382 264.072 81.0703 262.986 75.8947 262.973C73.2651 262.967 70.9102 263.237 69.2038 263.51C68.3485 263.647 67.6506 263.785 67.156 263.892C66.9086 263.946 66.7118 263.991 66.5714 264.025C66.4314 264.059 66.3422 264.082 66.3426 264.082L66.8287 266.022ZM90.9752 270.228L92.456 271.572L92.4638 271.563L90.983 270.219L89.5022 268.875L89.4944 268.883L90.9752 270.228ZM90.983 270.219L89.5545 271.619C94.588 276.755 95.6733 286.663 91.3512 302.176L93.2778 302.713L95.2044 303.25C99.5653 287.597 99.0994 275.644 92.4115 268.819L90.983 270.219ZM93.2778 302.713L91.3509 302.178C89.4978 308.844 85.999 322.304 83.4016 332.398L85.3385 332.896L87.2754 333.395C89.8751 323.292 93.3639 309.871 95.2047 303.249L93.2778 302.713ZM85.3385 332.896L83.3921 332.437L83.3522 332.605L85.2987 333.065L87.2452 333.524L87.285 333.356L85.3385 332.896ZM85.2987 333.065L83.3418 332.652C82.7704 335.361 84.2349 338.006 87.0437 338.672L87.5053 336.726L87.9669 334.78C87.445 334.656 87.094 334.244 87.2557 333.478L85.2987 333.065ZM87.5053 336.726L87.0205 338.666C87.663 338.827 88.2823 338.845 88.8258 338.798L88.6562 336.806L88.4866 334.813C88.2788 334.831 88.1149 334.817 87.9901 334.786L87.5053 336.726ZM88.6562 336.806L88.8624 338.795C90.8159 338.592 92.5193 337.354 93.402 335.553L91.6061 334.672L89.8102 333.792C89.4992 334.427 88.955 334.764 88.45 334.816L88.6562 336.806ZM91.6061 334.672L93.429 335.495L93.5414 335.246L91.7185 334.423L89.8956 333.601L89.7832 333.85L91.6061 334.672ZM91.7185 334.423L93.569 335.182C97.9618 324.468 103.834 310.308 106.888 303.5L105.063 302.681L103.238 301.863C100.152 308.742 94.2543 322.967 89.868 333.665L91.7185 334.423ZM105.063 302.681L106.888 303.501C109.258 298.225 113.964 287.757 121.362 278.264C128.776 268.752 138.671 260.505 151.35 259.176L151.141 257.187L150.933 255.198C136.69 256.691 125.917 265.914 118.207 275.805C110.483 285.716 105.61 296.583 103.239 301.862L105.063 302.681ZM151.141 257.187L151.356 259.175C152.126 259.092 157.374 258.289 163.125 258.214C165.998 258.177 168.896 258.324 171.337 258.808C173.856 259.307 175.515 260.093 176.326 261.03L177.838 259.721L179.35 258.412C177.638 256.435 174.865 255.429 172.115 254.884C169.286 254.324 166.077 254.175 163.073 254.214C157.071 254.293 151.493 255.137 150.927 255.198L151.141 257.187ZM177.838 259.721L176.325 261.03C178.262 263.268 179.42 266.95 179.423 272.426C179.426 277.871 178.285 284.824 175.927 293.294L177.854 293.83L179.781 294.366C182.188 285.717 183.426 278.375 183.423 272.424C183.42 266.505 182.187 261.691 179.35 258.413L177.838 259.721ZM177.854 293.83L175.927 293.294C174.479 298.5 172.041 308.066 168.692 321.713L170.634 322.19L172.576 322.666C175.927 309.017 178.351 299.506 179.781 294.366L177.854 293.83ZM170.634 322.19L168.682 321.754L168.644 321.922L170.596 322.358L172.548 322.793L172.586 322.625L170.634 322.19ZM170.596 322.358L168.635 321.965C168.096 324.661 169.568 327.255 172.334 327.93L172.808 325.988L173.283 324.045C172.749 323.914 172.408 323.498 172.558 322.75L170.596 322.358ZM172.808 325.988L172.343 327.933C175.086 328.59 177.767 327.036 178.839 324.516L176.998 323.733L175.158 322.951C174.774 323.853 173.936 324.201 173.274 324.043L172.808 325.988ZM176.998 323.733L178.838 324.518C183.121 314.474 188.812 301.106 191.521 294.502L189.671 293.743L187.82 292.984C185.124 299.556 179.447 312.893 175.159 322.949L176.998 323.733ZM189.671 293.743L191.521 294.502C191.692 294.084 195.881 283.775 203.579 273.163C211.333 262.475 222.313 251.941 235.957 250.29L235.717 248.304L235.476 246.319C220.112 248.178 208.262 259.895 200.341 270.815C192.364 281.811 188.033 292.466 187.82 292.983L189.671 293.743ZM235.717 248.304L235.957 250.29C237.662 250.083 241.047 249.619 243.988 249.208C245.462 249.003 246.831 248.81 247.831 248.668C248.331 248.598 248.739 248.54 249.022 248.5C249.164 248.48 249.274 248.464 249.349 248.453C249.387 248.448 249.415 248.444 249.435 248.441C249.444 248.44 249.452 248.439 249.456 248.438C249.459 248.438 249.461 248.437 249.462 248.437C249.463 248.437 249.463 248.437 249.463 248.437C249.464 248.437 249.464 248.437 249.464 248.437C249.464 248.437 249.464 248.437 249.182 246.457C248.899 244.477 248.899 244.477 248.899 244.477C248.899 244.477 248.899 244.477 248.899 244.477C248.899 244.477 248.898 244.477 248.898 244.477C248.896 244.477 248.895 244.478 248.892 244.478C248.887 244.479 248.88 244.48 248.87 244.481C248.851 244.484 248.823 244.488 248.786 244.493C248.711 244.504 248.601 244.519 248.46 244.539C248.177 244.579 247.77 244.637 247.271 244.708C246.272 244.849 244.906 245.042 243.435 245.247C240.485 245.658 237.138 246.117 235.476 246.319L235.717 248.304ZM249.182 246.457L251.14 246.863L253.77 234.191L251.812 233.784L249.854 233.378L247.223 246.05L249.182 246.457ZM251.812 233.784L251.293 231.853L248.822 232.516L249.341 234.448L249.86 236.38L252.331 235.716L251.812 233.784ZM249.341 234.448L248.853 232.508C248.814 232.518 245.018 233.508 240.279 233.496C235.475 233.484 230.158 232.445 226.623 228.841L225.195 230.242L223.767 231.642C228.43 236.396 235.095 237.483 240.269 237.496C242.898 237.503 245.253 237.233 246.96 236.96C247.816 236.824 248.514 236.685 249.01 236.578C249.258 236.525 249.455 236.479 249.596 236.445C249.666 236.428 249.723 236.414 249.764 236.404C249.786 236.398 249.853 236.382 249.828 236.388L249.341 234.448ZM225.195 230.242L226.624 228.842C221.59 223.706 220.505 213.799 224.827 198.285L222.9 197.749L220.974 197.212C216.613 212.865 217.079 224.817 223.767 231.642L225.195 230.242ZM222.9 197.749L224.827 198.284C226.296 193.002 228.971 182.83 232.776 168.065L230.84 167.566L228.903 167.067C225.097 181.836 222.431 191.973 220.974 197.213L222.9 197.749ZM230.84 167.566L232.777 168.063C233.491 165.28 232.047 162.481 229.135 161.79L228.673 163.736L228.211 165.682C228.736 165.806 229.116 166.238 228.902 167.069L230.84 167.566ZM223.084 58.9155L223.545 56.9695C220.779 56.3134 218.078 57.8932 217.021 60.4657L218.871 61.2259L220.721 61.9862C221.102 61.0569 221.951 60.7023 222.622 60.8615L223.084 58.9155ZM218.871 61.2259L217.02 60.4666C210.719 75.8205 206.109 86.7698 203.694 92.1488L205.518 92.9681L207.343 93.7874C209.788 88.3406 214.422 77.334 220.721 61.9853L218.871 61.2259ZM205.518 92.9681L203.694 92.1485C201.324 97.4243 196.618 107.893 189.219 117.385C181.805 126.897 171.91 135.143 159.232 136.473L159.44 138.462L159.649 140.451C173.891 138.958 184.665 129.734 192.374 119.844C200.098 109.933 204.971 99.0659 207.342 93.7877L205.518 92.9681ZM159.44 138.462L159.226 136.473C158.456 136.556 153.208 137.359 147.457 137.434C144.584 137.472 141.685 137.324 139.244 136.841C136.725 136.342 135.066 135.555 134.255 134.618L132.743 135.927L131.231 137.236C132.942 139.214 135.715 140.219 138.466 140.764C141.295 141.325 144.505 141.473 147.509 141.434C153.511 141.356 159.09 140.511 159.655 140.45L159.44 138.462ZM132.743 135.927L134.255 134.619C132.319 132.38 131.161 128.699 131.158 123.223C131.156 117.778 132.296 110.825 134.654 102.356L132.727 101.819L130.801 101.283C128.393 109.932 127.155 117.274 127.158 123.225C127.161 129.144 128.394 133.957 131.23 137.236L132.743 135.927ZM132.727 101.819L134.654 102.355C136.463 95.8519 139.597 83.3 141.89 73.9346L139.947 73.4588L138.005 72.9831C135.709 82.3591 132.59 94.8501 130.8 101.283L132.727 101.819ZM139.947 73.4588L141.89 73.9356C142.569 71.1676 141.118 68.4205 138.257 67.7186L137.781 69.661L137.304 71.6034C137.833 71.7331 138.205 72.1684 138.005 72.9821L139.947 73.4588ZM137.781 69.661L138.246 67.716C135.505 67.0596 132.826 68.6025 131.744 71.1291L133.583 71.916L135.422 72.7028C135.812 71.7915 136.65 71.4468 137.315 71.606L137.781 69.661ZM133.583 71.916L131.743 71.132L127.424 81.2677L129.264 82.0516L131.104 82.8356L135.423 72.6999L133.583 71.916ZM129.264 82.0516L127.424 81.2693C123.484 90.5389 120.68 97.2078 119.067 101.149L120.918 101.907L122.769 102.664C124.371 98.7501 127.165 92.1035 131.105 82.834L129.264 82.0516ZM120.918 101.907L119.068 101.148C118.897 101.565 114.708 111.875 107.009 122.486C99.2544 133.174 88.2714 143.709 74.6238 145.36L74.864 147.345L75.1042 149.331C90.4722 147.472 102.324 135.754 110.247 124.835C118.225 113.839 122.556 103.184 122.769 102.666L120.918 101.907ZM74.864 147.345L74.6235 145.36C72.9189 145.566 69.5335 146.031 66.5932 146.441C65.119 146.647 63.7502 146.839 62.7501 146.981C62.25 147.052 61.842 147.109 61.5589 147.15C61.4174 147.17 61.3071 147.185 61.2322 147.196C61.1947 147.201 61.1661 147.206 61.1468 147.208C61.1372 147.21 61.1298 147.211 61.1249 147.211C61.1225 147.212 61.1206 147.212 61.1194 147.212C61.1188 147.212 61.1183 147.212 61.118 147.212C61.1178 147.212 61.1177 147.212 61.1176 147.212C61.1175 147.212 61.1175 147.212 61.3998 149.192C61.682 151.172 61.6821 151.172 61.6821 151.172C61.6822 151.172 61.6823 151.172 61.6825 151.172C61.6828 151.172 61.6832 151.172 61.6838 151.172C61.685 151.172 61.6869 151.172 61.6893 151.171C61.6941 151.171 61.7013 151.17 61.7109 151.168C61.73 151.166 61.7585 151.162 61.7958 151.156C61.8704 151.146 61.9804 151.13 62.1216 151.11C62.4039 151.07 62.8111 151.012 63.3103 150.941C64.3087 150.8 65.6749 150.608 67.1459 150.403C70.0962 149.991 73.443 149.532 75.1045 149.331L74.864 147.345ZM61.3998 149.192L59.4415 148.786L56.811 161.458L58.7692 161.865L60.7275 162.271L63.358 149.599L61.3998 149.192ZM58.7692 161.865L59.2881 163.796L61.7586 163.133L61.2397 161.201L60.7208 159.27L58.2503 159.933L58.7692 161.865ZM61.2397 161.201L61.7248 163.142C61.7566 163.134 65.5513 162.142 70.2923 162.153C75.0983 162.163 80.4212 163.201 83.9584 166.807L85.3862 165.407L86.814 164.006C82.1478 159.249 75.4774 158.164 70.301 158.153C67.671 158.147 65.3161 158.418 63.6103 158.691C62.7553 158.827 62.0579 158.966 61.564 159.073C61.317 159.126 61.1206 159.172 60.9806 159.205C60.8419 159.239 60.7512 159.262 60.7546 159.261L61.2397 161.201ZM85.3862 165.407L86.7997 166.822L86.8075 166.814L85.394 165.399L83.9805 163.984L83.9727 163.992L85.3862 165.407ZM85.394 165.399L83.9655 166.799C88.9989 171.935 90.0842 181.842 85.7621 197.355L87.6888 197.892L89.6154 198.429C93.9762 182.776 93.5103 170.824 86.8224 163.999L85.394 165.399ZM87.6888 197.892L85.7618 197.357C83.9088 204.023 80.41 217.483 77.8126 227.577L79.7495 228.075L81.6864 228.573C84.2861 218.471 87.7749 205.05 89.6157 198.428L87.6888 197.892ZM79.7495 228.075L77.8123 227.578C77.0981 230.361 78.5418 233.16 81.4547 233.851L81.9163 231.905L82.3779 229.959C81.8527 229.834 81.4735 229.403 81.6867 228.572L79.7495 228.075ZM81.9163 231.905L81.4312 233.845C82.0718 234.005 82.6905 234.025 83.2366 233.978L83.0672 231.985L82.8977 229.993C82.6925 230.01 82.5281 229.996 82.4013 229.965L81.9163 231.905ZM83.0672 231.985L83.2734 233.975C85.3586 233.759 87.1555 232.363 87.9789 230.364L86.1295 229.602L84.2801 228.841C83.9841 229.56 83.3983 229.94 82.861 229.996L83.0672 231.985ZM86.1295 229.602L87.98 230.361C92.3728 219.647 98.2448 205.487 101.299 198.679L99.4743 197.86L97.6495 197.042C94.5633 203.921 88.6652 218.146 84.279 228.844L86.1295 229.602ZM99.4743 197.86L101.299 198.68C103.669 193.404 108.375 182.936 115.773 173.443C123.188 163.931 133.082 155.685 145.761 154.356L145.552 152.366L145.344 150.377C131.101 151.871 120.328 161.094 112.619 170.984C104.894 180.895 100.021 191.762 97.6499 197.041L99.4743 197.86ZM145.552 152.366L145.766 154.355C146.537 154.272 151.784 153.469 157.535 153.394C160.408 153.356 163.307 153.504 165.748 153.988C168.267 154.487 169.926 155.273 170.736 156.21L172.249 154.901L173.761 153.592C172.049 151.615 169.276 150.609 166.525 150.064C163.697 149.503 160.487 149.355 157.483 149.394C151.481 149.473 145.903 150.317 145.338 150.378L145.552 152.366ZM172.249 154.901L170.736 156.21C172.673 158.448 173.831 162.13 173.834 167.606C173.837 173.051 172.696 180.004 170.338 188.473L172.265 189.01L174.192 189.546C176.599 180.897 177.837 173.554 177.834 167.604C177.831 161.685 176.598 156.871 173.761 153.592L172.249 154.901ZM172.265 189.01L170.338 188.474C168.89 193.68 166.452 203.246 163.103 216.893L165.045 217.369L166.987 217.846C170.338 204.197 172.762 194.686 174.192 189.546L172.265 189.01ZM165.045 217.369L163.103 216.893C162.422 219.664 163.877 222.41 166.745 223.11L167.219 221.167L167.694 219.224C167.156 219.093 166.788 218.657 166.987 217.846L165.045 217.369ZM167.219 221.167L166.754 223.112C169.498 223.769 172.178 222.214 173.25 219.695L171.409 218.912L169.569 218.13C169.185 219.032 168.347 219.381 167.685 219.222L167.219 221.167ZM171.409 218.912L173.249 219.697C177.532 209.653 183.224 196.285 185.933 189.681L184.083 188.922L182.232 188.162C179.536 194.735 173.858 208.071 169.57 218.128L171.409 218.912ZM184.083 188.922L185.933 189.681C186.105 189.26 190.294 178.95 197.992 168.34C205.746 157.652 216.726 147.12 230.369 145.469L230.128 143.483L229.888 141.498C214.525 143.357 202.676 155.072 194.755 165.991C186.777 176.986 182.446 187.641 182.232 188.162L184.083 188.922ZM230.128 143.483L230.369 145.469C232.074 145.262 235.459 144.798 238.399 144.388C239.873 144.182 241.242 143.989 242.242 143.848C242.742 143.777 243.15 143.72 243.433 143.679C243.575 143.659 243.685 143.644 243.76 143.633C243.797 143.628 243.826 143.624 243.845 143.621C243.855 143.619 243.862 143.618 243.867 143.618C243.87 143.617 243.872 143.617 243.873 143.617C243.873 143.617 243.874 143.617 243.874 143.617C243.874 143.617 243.874 143.617 243.875 143.617C243.875 143.617 243.875 143.617 243.593 141.637C243.31 139.657 243.31 139.657 243.31 139.657C243.31 139.657 243.31 139.657 243.31 139.657C243.31 139.657 243.309 139.657 243.309 139.657C243.307 139.657 243.306 139.657 243.303 139.658C243.298 139.658 243.291 139.659 243.282 139.661C243.262 139.663 243.234 139.667 243.197 139.673C243.122 139.683 243.012 139.699 242.871 139.719C242.589 139.759 242.181 139.817 241.682 139.887C240.684 140.029 239.318 140.221 237.847 140.426C234.896 140.838 231.55 141.296 229.888 141.498L230.128 143.483ZM243.593 141.637L245.551 142.043L248.181 129.37L246.223 128.963L244.265 128.557L241.634 141.23L243.593 141.637ZM246.223 128.963L245.704 127.032L243.234 127.695L243.753 129.627L244.272 131.559L246.742 130.895L246.223 128.963ZM243.753 129.627L243.268 127.687C243.236 127.695 239.441 128.686 234.7 128.675C229.894 128.665 224.571 127.627 221.034 124.021L219.606 125.422L218.178 126.822C222.845 131.579 229.515 132.664 234.691 132.675C237.321 132.681 239.676 132.411 241.382 132.138C242.237 132.001 242.935 131.862 243.428 131.756C243.675 131.702 243.872 131.657 244.012 131.623C244.15 131.59 244.241 131.566 244.238 131.567L243.753 129.627ZM219.606 125.422L221.035 124.022C216.001 118.885 214.916 108.979 219.238 93.465L217.311 92.9283L215.385 92.3915C211.024 108.044 211.49 119.997 218.178 126.821L219.606 125.422ZM217.311 92.9283L219.238 93.4642C220.341 89.5004 222.121 82.7873 224.546 73.4544L222.611 72.9513L220.675 72.4483C218.25 81.7808 216.477 88.4646 215.385 92.3924L217.311 92.9283ZM222.611 72.9513L224.547 73.4522L227.187 63.2462L225.251 62.7454L223.314 62.2445L220.674 72.4505L222.611 72.9513ZM225.251 62.7454L227.188 63.2426C227.902 60.4595 226.458 57.6605 223.546 56.9695L223.084 58.9155L222.622 60.8615C223.147 60.9861 223.527 61.4173 223.313 62.2482L225.251 62.7454ZM67.9718 90.9973L68.2134 92.9827C68.2833 92.9742 68.1904 92.9856 68.2779 92.975L68.0374 90.9895L67.7969 89.004C67.7898 89.0049 67.7822 89.0058 67.7704 89.0072C67.7598 89.0085 67.7453 89.0102 67.7303 89.012L67.9718 90.9973ZM68.0374 90.9895L68.3652 92.9625L68.3745 92.9609L68.0468 90.988L67.719 89.015L67.7097 89.0166L68.0374 90.9895ZM68.0468 90.988L67.8066 89.0025C67.7814 89.0055 67.7313 89.0119 67.7256 89.0126L67.9718 90.9973L68.2181 92.9821C68.2621 92.9767 68.2622 92.9765 68.287 92.9735L68.0468 90.988Z" fill="black" mask="url(#path-1-outside-1_20_855)"/>
</g>
<path d="M223.534 165.666C224.422 163.504 226.661 162.231 228.904 162.763C231.22 163.312 232.397 165.519 231.808 167.813V167.814C228.479 180.735 226.015 190.132 224.47 195.811L223.864 198.017C219.532 213.565 220.462 223.983 225.909 229.542L226.272 229.898C230.081 233.5 235.541 234.486 240.287 234.496C245.005 234.506 248.805 233.551 249.083 233.48L251.553 232.818C251.888 232.728 252.245 232.818 252.498 233.057C252.75 233.295 252.861 233.647 252.791 233.987L250.161 246.66C250.086 247.021 249.819 247.308 249.474 247.413L249.322 247.446L249.321 247.447C249.32 247.447 249.318 247.447 249.315 247.447C249.31 247.448 249.303 247.45 249.294 247.451C249.275 247.454 249.245 247.458 249.208 247.463C249.133 247.474 249.023 247.49 248.882 247.51C248.599 247.55 248.191 247.607 247.691 247.678C246.692 247.819 245.323 248.012 243.849 248.218C240.907 248.628 237.532 249.091 235.838 249.296H235.837C221.763 250.999 210.565 261.829 202.769 272.575C195.003 283.28 190.78 293.674 190.597 294.121C187.891 300.717 182.202 314.076 177.918 324.123L177.919 324.124C177.019 326.239 174.8 327.492 172.576 326.96L172.571 326.959C170.286 326.401 169.103 324.232 169.663 321.951C173.013 308.304 175.447 298.751 176.891 293.562L177.321 291.982C179.402 284.172 180.425 277.649 180.423 272.426C180.42 266.839 179.243 262.874 177.082 260.376C176.046 259.179 174.108 258.338 171.531 257.827C168.993 257.324 166.017 257.176 163.111 257.214C157.297 257.29 151.967 258.103 151.248 258.181H151.245C138.176 259.551 128.061 268.043 120.573 277.649C113.093 287.246 108.346 297.814 105.975 303.091C102.913 309.917 97.0354 324.092 92.6444 334.802L92.6434 334.804C91.9518 336.483 90.4576 337.624 88.7596 337.8C88.7535 337.8 88.7472 337.801 88.7411 337.802C88.2844 337.841 87.7833 337.823 87.2743 337.697V337.698C84.9585 337.149 83.7812 334.942 84.37 332.647V332.646C86.9679 322.551 90.4643 309.101 92.3143 302.445V302.444C96.6222 286.982 95.7254 276.594 90.3583 271.013C90.3247 270.986 90.2919 270.959 90.2616 270.928C86.4422 267.034 80.7822 265.983 75.8837 265.973C71.0176 265.962 67.1271 266.978 67.0712 266.992L67.0702 266.991L64.618 267.651C64.2827 267.741 63.9242 267.65 63.6718 267.412C63.4194 267.174 63.3082 266.821 63.3788 266.481L66.0096 253.81L66.0536 253.659C66.1809 253.322 66.4826 253.075 66.8475 253.022H66.8495C66.8507 253.022 66.8529 253.022 66.8553 253.021C66.8602 253.021 66.8674 253.02 66.8768 253.019C66.896 253.016 66.9245 253.011 66.9618 253.006C67.0367 252.995 67.1475 252.98 67.2889 252.96C67.5718 252.92 67.9796 252.862 68.4794 252.791C69.479 252.65 70.8469 252.456 72.3202 252.251C75.263 251.841 78.6391 251.378 80.3329 251.173L80.9911 251.086C94.7599 249.131 105.732 238.472 113.407 227.894C121.176 217.186 125.4 206.791 125.582 206.348C127.728 201.102 131.992 191.006 138.252 176.344L138.253 176.343C139.133 174.286 141.243 173.055 143.394 173.464L143.602 173.509L143.607 173.51C145.814 174.051 146.992 176.104 146.555 178.305L146.508 178.518C144.5 186.714 141.853 197.336 140.015 204.209L139.28 206.907C136.91 215.421 135.744 222.473 135.747 228.044C135.75 233.631 136.927 237.595 139.089 240.094C140.125 241.291 142.062 242.132 144.639 242.643C147.177 243.145 150.153 243.293 153.058 243.255C158.872 243.179 164.202 242.366 164.922 242.288H164.925C177.994 240.918 188.109 232.427 195.597 222.82C203.077 213.224 207.825 202.655 210.195 197.379C212.618 191.983 217.233 181.019 223.534 165.667V165.666ZM217.946 60.8457C218.835 58.684 221.073 57.4104 223.315 57.9424C225.631 58.4919 226.808 60.6983 226.22 62.9932V62.9941C222.414 77.7603 219.741 87.9236 218.275 93.1953V93.1963C213.944 108.744 214.873 119.162 220.319 124.721C224.139 128.615 229.8 129.664 234.698 129.675C239.415 129.685 243.215 128.731 243.494 128.66L245.964 127.997C246.299 127.907 246.657 127.998 246.909 128.236C247.161 128.475 247.272 128.826 247.202 129.166L244.572 141.839C244.497 142.2 244.231 142.486 243.886 142.592L243.733 142.626H243.732C243.731 142.626 243.729 142.627 243.726 142.627C243.722 142.628 243.714 142.629 243.705 142.63C243.686 142.633 243.656 142.637 243.619 142.643C243.544 142.653 243.434 142.668 243.293 142.688C243.01 142.729 242.602 142.787 242.102 142.857C241.103 142.999 239.734 143.192 238.261 143.397C235.318 143.808 231.943 144.27 230.249 144.476H230.248C216.174 146.179 204.976 157.009 197.181 167.755C190.384 177.124 186.301 186.255 185.265 188.688L185.008 189.301C182.302 195.897 176.613 209.256 172.329 219.303C171.429 221.418 169.211 222.672 166.987 222.14L166.982 222.139C164.697 221.581 163.514 219.412 164.074 217.131C167.424 203.483 169.858 193.931 171.302 188.741C173.672 180.227 174.837 173.176 174.834 167.604C174.831 162.018 173.655 158.053 171.493 155.555C170.457 154.358 168.519 153.516 165.942 153.006C163.404 152.503 160.428 152.356 157.522 152.394C151.708 152.47 146.378 153.283 145.659 153.36H145.656C132.587 154.731 122.472 163.221 114.984 172.828C108.439 181.226 103.987 190.367 101.388 196.056L100.387 198.27C97.3243 205.096 91.4467 219.272 87.0555 229.981L87.0546 229.983C86.3629 231.663 84.8687 232.803 83.1708 232.979C83.1647 232.98 83.1583 232.981 83.1522 232.981C82.6956 233.02 82.1944 233.003 81.6854 232.877C81.6828 232.876 81.6802 232.876 81.6776 232.875C81.6764 232.875 81.6749 232.875 81.6737 232.875V232.874C79.3657 232.32 78.1931 230.117 78.7811 227.826L80.8583 219.783C83.0244 211.429 85.338 202.615 86.7255 197.624L87.1161 196.182C90.9723 181.515 89.9685 171.6 84.7714 166.193C84.737 166.166 84.7036 166.138 84.6727 166.106C80.8533 162.213 75.1934 161.163 70.2948 161.152C65.5821 161.142 61.7844 162.093 61.4989 162.166L59.0292 162.83C58.6939 162.92 58.3354 162.83 58.0829 162.592C57.8305 162.353 57.7194 162.001 57.7899 161.661L60.4208 148.988C60.5065 148.576 60.8416 148.262 61.2587 148.202H61.2596L61.2606 148.201C61.2619 148.201 61.264 148.202 61.2665 148.201C61.2714 148.2 61.2785 148.199 61.288 148.197C61.3071 148.195 61.3357 148.191 61.3729 148.186C61.4478 148.175 61.5586 148.159 61.7001 148.139C61.9829 148.098 62.3908 148.041 62.8905 147.971C63.8901 147.829 65.258 147.636 66.7313 147.431C69.6741 147.02 73.0502 146.558 74.744 146.353C88.8217 144.65 100.023 133.819 107.819 123.073C115.586 112.368 119.81 101.974 119.993 101.527C122.139 96.2821 126.403 86.1854 132.663 71.5234L132.664 71.5225C133.544 69.4657 135.654 68.2346 137.806 68.6436L138.014 68.6885L138.018 68.6895C140.297 69.2482 141.479 71.4176 140.919 73.6973C138.625 83.0653 135.495 95.6012 133.691 102.087C131.321 110.601 130.155 117.651 130.158 123.223C130.161 128.809 131.338 132.774 133.499 135.272C134.535 136.469 136.473 137.311 139.05 137.821C141.588 138.324 144.564 138.473 147.47 138.435C153.283 138.358 158.613 137.545 159.333 137.468H159.336C172.405 136.098 182.52 127.606 190.008 117.999C197.488 108.402 202.236 97.834 204.606 92.5576C207.029 87.1615 211.644 76.1979 217.945 60.8457H217.946Z" fill="white" stroke="black" stroke-width="2" stroke-linejoin="round"/>
<defs>
<filter id="filter0_d_20_855" x="0" y="0" width="310.581" height="396.588" filterUnits="userSpaceOnUse" color-interpolation-filters="sRGB">
<feFlood flood-opacity="0" result="BackgroundImageFix"/>
<feColorMatrix in="SourceAlpha" type="matrix" values="0 0 0 0 0 0 0 0 0 0 0 0 0 0 0 0 0 0 127 0" result="hardAlpha"/>
<feOffset dy="1"/>
<feComposite in2="hardAlpha" operator="out"/>
<feColorMatrix type="matrix" values="0 0 0 0 0 0 0 0 0 0 0 0 0 0 0 0 0 0 1 0"/>
<feBlend mode="normal" in2="BackgroundImageFix" result="effect1_dropShadow_20_855"/>
<feBlend mode="normal" in="SourceGraphic" in2="effect1_dropShadow_20_855" result="shape"/>
</filter>
<linearGradient id="paint0_linear_20_855" x1="198.298" y1="2.03572" x2="91.1589" y2="393.814" gradientUnits="userSpaceOnUse">
<stop stop-color="#EBABFF"/>
<stop offset="0.509615" stop-color="#FF7A42"/>
<stop offset="1" stop-color="#FFFF73"/>
</linearGradient>
</defs>
</svg>
